<svg width="46" height="42" viewBox="0 0 46 42" fill="none" xmlns="http://www.w3.org/2000/svg">
<path d="M42 6.14634H37.561V8.87805H41.6585V38.9268H3.41461V8.87805H7.51218V6.14634H3.07315C2.75387 6.15168 2.43876 6.21986 2.14583 6.347C1.8529 6.47413 1.58788 6.65773 1.36592 6.88731C1.14395 7.11688 0.969391 7.38793 0.852199 7.68498C0.735007 7.98203 0.677481 8.29925 0.682907 8.61854V39.1863C0.677481 39.5056 0.735007 39.8229 0.852199 40.1199C0.969391 40.417 1.14395 40.688 1.36592 40.9176C1.58788 41.1472 1.8529 41.3307 2.14583 41.4579C2.43876 41.585 2.75387 41.6532 3.07315 41.6585H42C42.3193 41.6532 42.6344 41.585 42.9273 41.4579C43.2202 41.3307 43.4853 41.1472 43.7072 40.9176C43.9292 40.688 44.1037 40.417 44.2209 40.1199C44.3381 39.8229 44.3957 39.5056 44.3902 39.1863V8.61854C44.3957 8.29925 44.3381 7.98203 44.2209 7.68498C44.1037 7.38793 43.9292 7.11688 43.7072 6.88731C43.4853 6.65773 43.2202 6.47413 42.9273 6.347C42.6344 6.21986 42.3193 6.15168 42 6.14634Z" fill="#00529B"/>
<path d="M8.87805 17.0732H11.6098V19.8049H8.87805V17.0732Z" fill="#00529B"/>
<path d="M17.0732 17.0732H19.8049V19.8049H17.0732V17.0732Z" fill="#00529B"/>
<path d="M25.2683 17.0732H28V19.8049H25.2683V17.0732Z" fill="#00529B"/>
<path d="M33.4634 17.0732H36.1951V19.8049H33.4634V17.0732Z" fill="#00529B"/>
<path d="M8.87805 23.9024H11.6098V26.6341H8.87805V23.9024Z" fill="#00529B"/>
<path d="M17.0732 23.9024H19.8049V26.6341H17.0732V23.9024Z" fill="#00529B"/>
<path d="M25.2683 23.9024H28V26.6341H25.2683V23.9024Z" fill="#00529B"/>
<path d="M33.4634 23.9024H36.1951V26.6341H33.4634V23.9024Z" fill="#00529B"/>
<path d="M8.87805 30.7317H11.6098V33.4634H8.87805V30.7317Z" fill="#00529B"/>
<path d="M17.0732 30.7317H19.8049V33.4634H17.0732V30.7317Z" fill="#00529B"/>
<path d="M25.2683 30.7317H28V33.4634H25.2683V30.7317Z" fill="#00529B"/>
<path d="M33.4634 30.7317H36.1951V33.4634H33.4634V30.7317Z" fill="#00529B"/>
<path d="M11.6098 11.6098C11.972 11.6098 12.3194 11.4659 12.5756 11.2097C12.8317 10.9536 12.9756 10.6061 12.9756 10.2439V2.04878C12.9756 1.68653 12.8317 1.33912 12.5756 1.08298C12.3194 0.826828 11.972 0.682926 11.6098 0.682926C11.2475 0.682926 10.9001 0.826828 10.6439 1.08298C10.3878 1.33912 10.2439 1.68653 10.2439 2.04878V10.2439C10.2439 10.6061 10.3878 10.9536 10.6439 11.2097C10.9001 11.4659 11.2475 11.6098 11.6098 11.6098Z" fill="#00529B"/>
<path d="M33.4634 11.6098C33.8256 11.6098 34.173 11.4659 34.4292 11.2097C34.6853 10.9536 34.8292 10.6061 34.8292 10.2439V2.04878C34.8292 1.68653 34.6853 1.33912 34.4292 1.08298C34.173 0.826828 33.8256 0.682926 33.4634 0.682926C33.1011 0.682926 32.7537 0.826828 32.4976 1.08298C32.2414 1.33912 32.0975 1.68653 32.0975 2.04878V10.2439C32.0975 10.6061 32.2414 10.9536 32.4976 11.2097C32.7537 11.4659 33.1011 11.6098 33.4634 11.6098Z" fill="#00529B"/>
<path d="M15.7073 6.14634H29.3659V8.87805H15.7073V6.14634Z" fill="#00529B"/>
</svg>
