<svg width="24" height="24" viewBox="0 0 24 24" fill="none" xmlns="http://www.w3.org/2000/svg">
<g clip-path="url(#clip0_1660_9551)">
<path d="M21.5 24H2.5C1.8372 23.9992 1.20178 23.7356 0.73311 23.2669C0.264441 22.7982 0.000793929 22.1628 0 21.5L0 4.5C0 3.122 1.121 2 2.5 2H21.5C22.879 2 24 3.122 24 4.5V21.5C24 22.878 22.879 24 21.5 24ZM2.5 3C1.673 3 1 3.673 1 4.5V21.5C1 22.327 1.673 23 2.5 23H21.5C22.327 23 23 22.327 23 21.5V4.5C23 3.673 22.327 3 21.5 3H2.5Z" fill="#495057"/>
<path d="M23.5 9H0.5C0.367392 9 0.240215 8.94732 0.146447 8.85355C0.0526784 8.75979 0 8.63261 0 8.5C0 8.36739 0.0526784 8.24021 0.146447 8.14645C0.240215 8.05268 0.367392 8 0.5 8H23.5C23.6326 8 23.7598 8.05268 23.8536 8.14645C23.9473 8.24021 24 8.36739 24 8.5C24 8.63261 23.9473 8.75979 23.8536 8.85355C23.7598 8.94732 23.6326 9 23.5 9ZM5.5 5C5.36739 5 5.24021 4.94732 5.14645 4.85355C5.05268 4.75979 5 4.63261 5 4.5V0.5C5 0.367392 5.05268 0.240215 5.14645 0.146447C5.24021 0.0526784 5.36739 0 5.5 0C5.63261 0 5.75979 0.0526784 5.85355 0.146447C5.94732 0.240215 6 0.367392 6 0.5V4.5C6 4.63261 5.94732 4.75979 5.85355 4.85355C5.75979 4.94732 5.63261 5 5.5 5ZM18.5 5C18.3674 5 18.2402 4.94732 18.1464 4.85355C18.0527 4.75979 18 4.63261 18 4.5V0.5C18 0.367392 18.0527 0.240215 18.1464 0.146447C18.2402 0.0526784 18.3674 0 18.5 0C18.6326 0 18.7598 0.0526784 18.8536 0.146447C18.9473 0.240215 19 0.367392 19 0.5V4.5C19 4.63261 18.9473 4.75979 18.8536 4.85355C18.7598 4.94732 18.6326 5 18.5 5ZM9 15C7.897 15 7 14.103 7 13C7 11.897 7.897 11 9 11C10.103 11 11 11.897 11 13C11 14.103 10.103 15 9 15ZM9 12C8.74252 12.0115 8.4994 12.1219 8.32128 12.3082C8.14315 12.4945 8.04373 12.7423 8.04373 13C8.04373 13.2577 8.14315 13.5055 8.32128 13.6918C8.4994 13.8781 8.74252 13.9885 9 14C9.25748 13.9885 9.5006 13.8781 9.67872 13.6918C9.85685 13.5055 9.95627 13.2577 9.95627 13C9.95627 12.7423 9.85685 12.4945 9.67872 12.3082C9.5006 12.1219 9.25748 12.0115 9 12ZM15 21C13.897 21 13 20.103 13 19C13 17.897 13.897 17 15 17C16.103 17 17 17.897 17 19C17 20.103 16.103 21 15 21ZM15 18C14.7425 18.0115 14.4994 18.1219 14.3213 18.3082C14.1431 18.4945 14.0437 18.7423 14.0437 19C14.0437 19.2577 14.1431 19.5055 14.3213 19.6918C14.4994 19.8781 14.7425 19.9885 15 20C15.2575 19.9885 15.5006 19.8781 15.6787 19.6918C15.8569 19.5055 15.9563 19.2577 15.9563 19C15.9563 18.7423 15.8569 18.4945 15.6787 18.3082C15.5006 18.1219 15.2575 18.0115 15 18ZM8.5 21C8.40604 21.0008 8.31376 20.9751 8.23382 20.9257C8.15388 20.8763 8.08954 20.8053 8.04823 20.721C8.00692 20.6366 7.99033 20.5422 8.00038 20.4488C8.01042 20.3554 8.04669 20.2667 8.105 20.193L15.105 11.193C15.1866 11.0884 15.3063 11.0204 15.438 11.0041C15.5696 10.9878 15.7024 11.0244 15.807 11.106C15.9116 11.1876 15.9796 11.3073 15.9959 11.439C16.0122 11.5706 15.9756 11.7034 15.894 11.808L8.894 20.808C8.84727 20.8679 8.78749 20.9163 8.71921 20.9496C8.65093 20.9828 8.57596 21.0001 8.5 21Z" fill="#495057"/>
</g>
<defs>
<clipPath id="clip0_1660_9551">
<rect width="24" height="24" fill="white"/>
</clipPath>
</defs>
</svg>
