<svg width="52" height="42" viewBox="0 0 52 42" fill="none" xmlns="http://www.w3.org/2000/svg">
<path fill-rule="evenodd" clip-rule="evenodd" d="M14.549 3.17223C15.005 2.26029 15.7059 1.49332 16.5732 0.95728C17.4405 0.421235 18.4399 0.137287 19.4595 0.137253H31.5994C32.619 0.137287 33.6184 0.421235 34.4857 0.95728C35.353 1.49332 36.0539 2.26029 36.5098 3.17223L38.4731 7.10102C38.7468 7.64824 39.1675 8.10841 39.6881 8.42997C40.2086 8.75152 40.8084 8.92175 41.4203 8.92157H45.2942C46.7502 8.92157 48.1467 9.5 49.1763 10.5296C50.2059 11.5592 50.7843 12.9557 50.7843 14.4118V36.3725C50.7843 37.8286 50.2059 39.2251 49.1763 40.2547C48.1467 41.2843 46.7502 41.8627 45.2942 41.8627H5.76473C4.30864 41.8627 2.91219 41.2843 1.88258 40.2547C0.852966 39.2251 0.274536 37.8286 0.274536 36.3725V14.4118C0.274536 12.9557 0.852966 11.5592 1.88258 10.5296C2.91219 9.5 4.30864 8.92157 5.76473 8.92157H9.63862C10.2507 8.92155 10.8507 8.75099 11.3712 8.42903C11.8918 8.10708 12.3124 7.64645 12.5858 7.09882L14.549 3.17223ZM19.4595 2.33333C18.8474 2.33335 18.2474 2.50391 17.7269 2.82586C17.2063 3.14782 16.7857 3.60845 16.5123 4.15608L14.549 8.08047C14.0934 8.99282 13.3926 9.76024 12.5253 10.2967C11.658 10.8331 10.6584 11.1174 9.63862 11.1176H5.76473C4.89108 11.1176 4.05321 11.4647 3.43544 12.0825C2.81767 12.7002 2.47061 13.5381 2.47061 14.4118V36.3725C2.47061 37.2462 2.81767 38.0841 3.43544 38.7018C4.05321 39.3196 4.89108 39.6667 5.76473 39.6667H45.2942C46.1678 39.6667 47.0057 39.3196 47.6234 38.7018C48.2412 38.0841 48.5883 37.2462 48.5883 36.3725V14.4118C48.5883 13.5381 48.2412 12.7002 47.6234 12.0825C47.0057 11.4647 46.1678 11.1176 45.2942 11.1176H41.4203C40.4007 11.1176 39.4013 10.8337 38.534 10.2976C37.6667 9.76157 36.9658 8.99461 36.5098 8.08266L34.5465 4.15388C34.2728 3.60666 33.8521 3.14649 33.3316 2.82493C32.8111 2.50337 32.2113 2.33315 31.5994 2.33333H19.4595Z" fill="#6FA9A4"/>
<path fill-rule="evenodd" clip-rule="evenodd" d="M4.66669 7.82353C4.66669 6.94987 5.01374 6.112 5.63151 5.49424C6.24928 4.87647 7.08715 4.52941 7.9608 4.52941H10.1569C11.0305 4.52941 11.8684 4.87647 12.4862 5.49424C13.1039 6.112 13.451 6.94987 13.451 7.82353V8.92157C13.451 9.21279 13.3353 9.49208 13.1294 9.698C12.9235 9.90392 12.6442 10.0196 12.353 10.0196C12.0617 10.0196 11.7825 9.90392 11.5765 9.698C11.3706 9.49208 11.2549 9.21279 11.2549 8.92157V7.82353C11.2549 7.53231 11.1392 7.25302 10.9333 7.0471C10.7274 6.84118 10.4481 6.72549 10.1569 6.72549H7.9608C7.66959 6.72549 7.3903 6.84118 7.18437 7.0471C6.97845 7.25302 6.86277 7.53231 6.86277 7.82353V10.0196C6.86277 10.3108 6.74708 10.5901 6.54116 10.796C6.33523 11.002 6.05594 11.1176 5.76473 11.1176C5.47351 11.1176 5.19422 11.002 4.9883 10.796C4.78237 10.5901 4.66669 10.3108 4.66669 10.0196V7.82353ZM25.5294 13.3137C22.9085 13.3137 20.3949 14.3549 18.5416 16.2082C16.6883 18.0615 15.6471 20.5751 15.6471 23.1961C15.6471 25.817 16.6883 28.3307 18.5416 30.184C20.3949 32.0373 22.9085 33.0784 25.5294 33.0784C28.1504 33.0784 30.664 32.0373 32.5173 30.184C34.3706 28.3307 35.4118 25.817 35.4118 23.1961C35.4118 20.5751 34.3706 18.0615 32.5173 16.2082C30.664 14.3549 28.1504 13.3137 25.5294 13.3137ZM13.451 23.1961C13.451 19.9927 14.7235 16.9205 16.9887 14.6553C19.2538 12.3902 22.326 11.1176 25.5294 11.1176C28.7328 11.1176 31.805 12.3902 34.0702 14.6553C36.3353 16.9205 37.6079 19.9927 37.6079 23.1961C37.6079 26.3995 36.3353 29.4717 34.0702 31.7368C31.805 34.002 28.7328 35.2745 25.5294 35.2745C22.326 35.2745 19.2538 34.002 16.9887 31.7368C14.7235 29.4717 13.451 26.3995 13.451 23.1961Z" fill="#6FA9A4"/>
<path fill-rule="evenodd" clip-rule="evenodd" d="M25.5294 19.902C24.6558 19.902 23.8179 20.249 23.2001 20.8668C22.5824 21.4846 22.2353 22.3224 22.2353 23.1961C22.2353 24.0697 22.5824 24.9076 23.2001 25.5254C23.8179 26.1431 24.6558 26.4902 25.5294 26.4902C26.4031 26.4902 27.241 26.1431 27.8587 25.5254C28.4765 24.9076 28.8236 24.0697 28.8236 23.1961C28.8236 22.3224 28.4765 21.4846 27.8587 20.8668C27.241 20.249 26.4031 19.902 25.5294 19.902ZM20.0392 23.1961C20.0392 21.74 20.6177 20.3435 21.6473 19.3139C22.6769 18.2843 24.0734 17.7059 25.5294 17.7059C26.9855 17.7059 28.382 18.2843 29.4116 19.3139C30.4412 20.3435 31.0196 21.74 31.0196 23.1961C31.0196 24.6522 30.4412 26.0486 29.4116 27.0782C28.382 28.1078 26.9855 28.6863 25.5294 28.6863C24.0734 28.6863 22.6769 28.1078 21.6473 27.0782C20.6177 26.0486 20.0392 24.6522 20.0392 23.1961ZM39.804 16.6078C39.804 16.3166 39.9196 16.0373 40.1256 15.8314C40.3315 15.6255 40.6108 15.5098 40.902 15.5098H45.2941C45.5854 15.5098 45.8647 15.6255 46.0706 15.8314C46.2765 16.0373 46.3922 16.3166 46.3922 16.6078C46.3922 16.8991 46.2765 17.1784 46.0706 17.3843C45.8647 17.5902 45.5854 17.7059 45.2941 17.7059H40.902C40.6108 17.7059 40.3315 17.5902 40.1256 17.3843C39.9196 17.1784 39.804 16.8991 39.804 16.6078Z" fill="#6FA9A4"/>
</svg>
