<svg width="30" height="24" viewBox="0 0 30 24" fill="none" xmlns="http://www.w3.org/2000/svg">
<path fill-rule="evenodd" clip-rule="evenodd" d="M8.31372 1.8127C8.57427 1.29159 8.97478 0.853329 9.47037 0.547017C9.96597 0.240706 10.5371 0.07845 11.1197 0.0784302H18.0568C18.6394 0.07845 19.2105 0.240706 19.7061 0.547017C20.2017 0.853329 20.6022 1.29159 20.8627 1.8127L21.9846 4.05772C22.141 4.37042 22.3814 4.63338 22.6789 4.81712C22.9763 5.00087 23.3191 5.09814 23.6687 5.09804H25.8824C26.7144 5.09804 27.5124 5.42857 28.1007 6.01692C28.6891 6.60527 29.0196 7.40324 29.0196 8.23529V20.7843C29.0196 21.6164 28.6891 22.4143 28.1007 23.0027C27.5124 23.591 26.7144 23.9216 25.8824 23.9216H3.29412C2.46206 23.9216 1.66409 23.591 1.07574 23.0027C0.487392 22.4143 0.15686 21.6164 0.15686 20.7843V8.23529C0.15686 7.40324 0.487392 6.60527 1.07574 6.01692C1.66409 5.42857 2.46206 5.09804 3.29412 5.09804H5.50776C5.85752 5.09803 6.20036 5.00057 6.49783 4.81659C6.79529 4.63262 7.03562 4.3694 7.19184 4.05647L8.31372 1.8127ZM11.1197 1.33333C10.7699 1.33334 10.4271 1.4308 10.1296 1.61478C9.83216 1.79876 9.59183 2.06197 9.43561 2.3749L8.31372 4.61741C8.05335 5.13876 7.65292 5.57728 7.15731 5.88382C6.6617 6.19036 6.09051 6.3528 5.50776 6.35294H3.29412C2.79488 6.35294 2.3161 6.55126 1.96309 6.90427C1.61008 7.25728 1.41176 7.73606 1.41176 8.23529V20.7843C1.41176 21.2835 1.61008 21.7623 1.96309 22.1153C2.3161 22.4683 2.79488 22.6667 3.29412 22.6667H25.8824C26.3816 22.6667 26.8604 22.4683 27.2134 22.1153C27.5664 21.7623 27.7647 21.2835 27.7647 20.7843V8.23529C27.7647 7.73606 27.5664 7.25728 27.2134 6.90427C26.8604 6.55126 26.3816 6.35294 25.8824 6.35294H23.6687C23.0861 6.35292 22.515 6.19066 22.0194 5.88435C21.5238 5.57804 21.1233 5.13978 20.8627 4.61867L19.7409 2.37365C19.5845 2.06095 19.3441 1.79799 19.0466 1.61425C18.7492 1.4305 18.4064 1.33323 18.0568 1.33333H11.1197Z" fill="#374676"/>
<path fill-rule="evenodd" clip-rule="evenodd" d="M2.66663 4.47059C2.66663 3.97136 2.86494 3.49257 3.21795 3.13956C3.57096 2.78655 4.04975 2.58823 4.54898 2.58823H5.80388C6.30311 2.58823 6.7819 2.78655 7.13491 3.13956C7.48792 3.49257 7.68623 3.97136 7.68623 4.47059V5.09804C7.68623 5.26445 7.62013 5.42404 7.50246 5.54171C7.38479 5.65938 7.22519 5.72549 7.05878 5.72549C6.89237 5.72549 6.73278 5.65938 6.61511 5.54171C6.49744 5.42404 6.43133 5.26445 6.43133 5.09804V4.47059C6.43133 4.30418 6.36523 4.14458 6.24756 4.02691C6.12989 3.90924 5.97029 3.84314 5.80388 3.84314H4.54898C4.38257 3.84314 4.22297 3.90924 4.1053 4.02691C3.98763 4.14458 3.92153 4.30418 3.92153 4.47059V5.72549C3.92153 5.8919 3.85542 6.05149 3.73775 6.16916C3.62008 6.28683 3.46049 6.35294 3.29408 6.35294C3.12767 6.35294 2.96807 6.28683 2.8504 6.16916C2.73273 6.05149 2.66663 5.8919 2.66663 5.72549V4.47059ZM14.5882 7.60784C13.0905 7.60784 11.6542 8.2028 10.5951 9.26183C9.53609 10.3209 8.94114 11.7572 8.94114 13.2549C8.94114 14.7526 9.53609 16.1889 10.5951 17.248C11.6542 18.307 13.0905 18.902 14.5882 18.902C16.0859 18.902 17.5222 18.307 18.5813 17.248C19.6403 16.1889 20.2353 14.7526 20.2353 13.2549C20.2353 11.7572 19.6403 10.3209 18.5813 9.26183C17.5222 8.2028 16.0859 7.60784 14.5882 7.60784ZM7.68623 13.2549C7.68623 11.4244 8.4134 9.66885 9.70777 8.37448C11.0021 7.08011 12.7577 6.35294 14.5882 6.35294C16.4187 6.35294 18.1743 7.08011 19.4686 8.37448C20.763 9.66885 21.4902 11.4244 21.4902 13.2549C21.4902 15.0854 20.763 16.841 19.4686 18.1353C18.1743 19.4297 16.4187 20.1569 14.5882 20.1569C12.7577 20.1569 11.0021 19.4297 9.70777 18.1353C8.4134 16.841 7.68623 15.0854 7.68623 13.2549Z" fill="#374676"/>
<path fill-rule="evenodd" clip-rule="evenodd" d="M14.5882 11.3725C14.089 11.3725 13.6102 11.5709 13.2572 11.9239C12.9041 12.2769 12.7058 12.7557 12.7058 13.2549C12.7058 13.7541 12.9041 14.2329 13.2572 14.5859C13.6102 14.9389 14.089 15.1373 14.5882 15.1373C15.0874 15.1373 15.5662 14.9389 15.9192 14.5859C16.2722 14.2329 16.4705 13.7541 16.4705 13.2549C16.4705 12.7557 16.2722 12.2769 15.9192 11.9239C15.5662 11.5709 15.0874 11.3725 14.5882 11.3725ZM11.4509 13.2549C11.4509 12.4229 11.7815 11.6249 12.3698 11.0365C12.9582 10.4482 13.7561 10.1176 14.5882 10.1176C15.4202 10.1176 16.2182 10.4482 16.8066 11.0365C17.3949 11.6249 17.7254 12.4229 17.7254 13.2549C17.7254 14.087 17.3949 14.8849 16.8066 15.4733C16.2182 16.0616 15.4202 16.3922 14.5882 16.3922C13.7561 16.3922 12.9582 16.0616 12.3698 15.4733C11.7815 14.8849 11.4509 14.087 11.4509 13.2549ZM22.745 9.4902C22.745 9.32379 22.8112 9.16419 22.9288 9.04652C23.0465 8.92885 23.2061 8.86275 23.3725 8.86275H25.8823C26.0487 8.86275 26.2083 8.92885 26.326 9.04652C26.4436 9.16419 26.5098 9.32379 26.5098 9.4902C26.5098 9.65661 26.4436 9.8162 26.326 9.93387C26.2083 10.0515 26.0487 10.1176 25.8823 10.1176H23.3725C23.2061 10.1176 23.0465 10.0515 22.9288 9.93387C22.8112 9.8162 22.745 9.65661 22.745 9.4902Z" fill="#374676"/>
</svg>
