<svg width="20" height="19" viewBox="0 0 20 19" fill="none" xmlns="http://www.w3.org/2000/svg">
<path d="M9.16638 18.3328C4.11237 18.3328 0 14.2204 0 9.16638C0 4.11237 4.11237 0 9.16638 0C10.9238 0 12.6338 0.500818 14.1112 1.44912C14.2442 1.54163 14.3361 1.68207 14.3676 1.84092C14.3991 1.99977 14.3679 2.16466 14.2804 2.30093C14.1929 2.43721 14.0559 2.53425 13.8984 2.57167C13.7408 2.60909 13.5748 2.58397 13.4354 2.50159C12.1621 1.68317 10.68 1.24866 9.16638 1.24996C4.80152 1.24996 1.24996 4.80152 1.24996 9.16638C1.24996 13.5312 4.80152 17.0828 9.16638 17.0828C13.5312 17.0828 17.0828 13.5312 17.0828 9.16638C17.0828 8.90818 17.0706 8.65012 17.0461 8.39307C17.0301 8.22809 17.0803 8.0635 17.1856 7.93551C17.2909 7.80752 17.4428 7.72662 17.6078 7.71059C17.7728 7.69457 17.9374 7.74474 18.0653 7.85007C18.1933 7.9554 18.2742 8.10726 18.2903 8.27224C18.3186 8.5664 18.3328 8.86473 18.3328 9.16638C18.3328 14.2204 14.2204 18.3328 9.16638 18.3328Z" fill="#374676"/>
<path d="M10.208 11.2497C10.1259 11.2499 10.0446 11.2338 9.96881 11.2023C9.89299 11.1708 9.82418 11.1246 9.76637 11.0663L6.01648 7.31645C5.89924 7.19921 5.83337 7.04019 5.83337 6.87438C5.83337 6.70857 5.89924 6.54956 6.01648 6.43231C6.13373 6.31507 6.29275 6.2492 6.45855 6.2492C6.62436 6.2492 6.78338 6.31507 6.90062 6.43231L10.2089 9.74054L18.9328 1.01665C18.9908 0.958592 19.0597 0.912542 19.1356 0.881123C19.2114 0.849705 19.2927 0.833534 19.3748 0.833534C19.4569 0.833534 19.5382 0.849705 19.6141 0.881123C19.6899 0.912542 19.7588 0.958592 19.8169 1.01665C19.8749 1.0747 19.921 1.14362 19.9524 1.21947C19.9838 1.29532 20 1.37662 20 1.45872C20 1.54082 19.9838 1.62211 19.9524 1.69796C19.921 1.77381 19.8749 1.84273 19.8169 1.90078L10.6505 11.0672C10.533 11.1842 10.3739 11.2499 10.208 11.2497Z" fill="#374676"/>
</svg>
