<svg width="42" height="42" viewBox="0 0 42 42" fill="none" xmlns="http://www.w3.org/2000/svg">
<g clip-path="url(#clip0_1976_10458)">
<path d="M16.52 38.5H4.375C3.2151 38.4986 2.10311 38.0372 1.28294 37.2171C0.462772 36.3969 0.00138938 35.2849 0 34.125L0 4.375C0 1.9635 1.9635 0 4.375 0H37.625C40.0365 0 42 1.9635 42 4.375V18.9C42 19.1321 41.9078 19.3546 41.7437 19.5187C41.5796 19.6828 41.3571 19.775 41.125 19.775C40.8929 19.775 40.6704 19.6828 40.5063 19.5187C40.3422 19.3546 40.25 19.1321 40.25 18.9V4.375C40.25 2.92775 39.0723 1.75 37.625 1.75H4.375C2.92775 1.75 1.75 2.92775 1.75 4.375V34.125C1.75 35.5723 2.92775 36.75 4.375 36.75H16.52C16.7521 36.75 16.9746 36.8422 17.1387 37.0063C17.3028 37.1704 17.395 37.3929 17.395 37.625C17.395 37.8571 17.3028 38.0796 17.1387 38.2437C16.9746 38.4078 16.7521 38.5 16.52 38.5Z" fill="#D7A319"/>
<path d="M41.125 8.75H0.875C0.642936 8.75 0.420376 8.65781 0.256282 8.49372C0.0921872 8.32962 0 8.10706 0 7.875C0 7.64294 0.0921872 7.42038 0.256282 7.25628C0.420376 7.09219 0.642936 7 0.875 7H41.125C41.3571 7 41.5796 7.09219 41.7437 7.25628C41.9078 7.42038 42 7.64294 42 7.875C42 8.10706 41.9078 8.32962 41.7437 8.49372C41.5796 8.65781 41.3571 8.75 41.125 8.75ZM17.5525 22.7325H7.9625C7.73044 22.7325 7.50788 22.6403 7.34378 22.4762C7.17969 22.3121 7.0875 22.0896 7.0875 21.8575V13.125C7.0875 12.8929 7.17969 12.6704 7.34378 12.5063C7.50788 12.3422 7.73044 12.25 7.9625 12.25H34.125C34.3571 12.25 34.5796 12.3422 34.7437 12.5063C34.9078 12.6704 35 12.8929 35 13.125V15.26C35 15.4921 34.9078 15.7146 34.7437 15.8787C34.5796 16.0428 34.3571 16.135 34.125 16.135C33.8929 16.135 33.6704 16.0428 33.5063 15.8787C33.3422 15.7146 33.25 15.4921 33.25 15.26V14H8.8375V20.9825H17.5525C17.7846 20.9825 18.0071 21.0747 18.1712 21.2388C18.3353 21.4029 18.4275 21.6254 18.4275 21.8575C18.4275 22.0896 18.3353 22.3121 18.1712 22.4762C18.0071 22.6403 17.7846 22.7325 17.5525 22.7325ZM15.2775 27.9825H7.9625C7.73044 27.9825 7.50788 27.8903 7.34378 27.7262C7.17969 27.5621 7.0875 27.3396 7.0875 27.1075C7.0875 26.8754 7.17969 26.6529 7.34378 26.4888C7.50788 26.3247 7.73044 26.2325 7.9625 26.2325H15.2775C15.5096 26.2325 15.7321 26.3247 15.8962 26.4888C16.0603 26.6529 16.1525 26.8754 16.1525 27.1075C16.1525 27.3396 16.0603 27.5621 15.8962 27.7262C15.7321 27.8903 15.5096 27.9825 15.2775 27.9825ZM14.98 33.2325H7.9625C7.73044 33.2325 7.50788 33.1403 7.34378 32.9762C7.17969 32.8121 7.0875 32.5896 7.0875 32.3575C7.0875 32.1254 7.17969 31.9029 7.34378 31.7388C7.50788 31.5747 7.73044 31.4825 7.9625 31.4825H14.98C15.2121 31.4825 15.4346 31.5747 15.5987 31.7388C15.7628 31.9029 15.855 32.1254 15.855 32.3575C15.855 32.5896 15.7628 32.8121 15.5987 32.9762C15.4346 33.1403 15.2121 33.2325 14.98 33.2325ZM30.625 42C24.353 42 19.25 36.897 19.25 30.625C19.25 24.353 24.353 19.25 30.625 19.25C36.897 19.25 42 24.353 42 30.625C42 36.897 36.897 42 30.625 42ZM30.625 21C25.3172 21 21 25.3172 21 30.625C21 35.9328 25.3172 40.25 30.625 40.25C35.9328 40.25 40.25 35.9328 40.25 30.625C40.25 25.3172 35.9328 21 30.625 21Z" fill="#D7A319"/>
<path d="M28.875 35C28.643 34.9995 28.4205 34.9077 28.2555 34.7445L24.7555 31.2445C24.5961 31.0795 24.5079 30.8584 24.5099 30.629C24.5119 30.3996 24.6039 30.1801 24.7662 30.0179C24.9284 29.8557 25.1479 29.7636 25.3773 29.7617C25.6067 29.7597 25.8277 29.8479 25.9928 30.0072L28.8313 32.8457L34.3403 26.5492C34.4932 26.3745 34.7093 26.2677 34.941 26.2522C35.1727 26.2368 35.401 26.3141 35.5758 26.467C35.7505 26.6199 35.8573 26.836 35.8728 27.0677C35.8882 27.2994 35.8109 27.5278 35.658 27.7025L29.533 34.7025C29.454 34.7927 29.3574 34.8656 29.249 34.9168C29.1406 34.968 29.0228 34.9963 28.903 35H28.875Z" fill="#D7A319"/>
</g>
<defs>
<clipPath id="clip0_1976_10458">
<rect width="42" height="42" fill="white"/>
</clipPath>
</defs>
</svg>
