<svg width="20" height="18" viewBox="0 0 20 18" fill="none" xmlns="http://www.w3.org/2000/svg">
<g clip-path="url(#clip0_1399_4517)">
<path d="M8.94915 18C4.01492 18 0 13.9851 0 9.05084C0 4.1166 4.01492 0.101685 8.94915 0.101685C10.6649 0.101685 12.3344 0.590634 13.7768 1.51646C13.9066 1.60678 13.9963 1.74389 14.0271 1.89897C14.0579 2.05406 14.0274 2.21504 13.9419 2.34809C13.8565 2.48113 13.7228 2.57588 13.569 2.61241C13.4152 2.64894 13.2531 2.62442 13.117 2.54399C11.8739 1.74497 10.4269 1.32075 8.94915 1.32202C4.68773 1.32202 1.22034 4.78941 1.22034 9.05084C1.22034 13.3123 4.68773 16.7797 8.94915 16.7797C13.2106 16.7797 16.678 13.3123 16.678 9.05084C16.678 8.79875 16.666 8.54681 16.6422 8.29585C16.6265 8.13478 16.6755 7.97409 16.7783 7.84914C16.8812 7.72418 17.0294 7.64519 17.1905 7.62955C17.3516 7.61391 17.5123 7.66289 17.6372 7.76572C17.7622 7.86856 17.8412 8.01682 17.8568 8.17789C17.8845 8.46507 17.8983 8.75633 17.8983 9.05084C17.8983 13.9851 13.8834 18 8.94915 18Z" fill="#4BB543"/>
<path d="M9.96629 11.0847C9.88615 11.0849 9.80676 11.0692 9.73274 11.0385C9.65873 11.0078 9.59155 10.9627 9.5351 10.9058L5.87408 7.24475C5.75962 7.13028 5.69531 6.97503 5.69531 6.81315C5.69531 6.65128 5.75962 6.49603 5.87408 6.38156C5.98855 6.2671 6.1438 6.20279 6.30568 6.20279C6.46756 6.20279 6.62281 6.2671 6.73727 6.38156L9.9671 9.61139L18.4843 1.09424C18.5409 1.03756 18.6082 0.992601 18.6823 0.961928C18.7563 0.931254 18.8357 0.915466 18.9158 0.915466C18.996 0.915466 19.0754 0.931254 19.1494 0.961928C19.2235 0.992601 19.2908 1.03756 19.3474 1.09424C19.4041 1.15092 19.4491 1.2182 19.4798 1.29225C19.5104 1.36631 19.5262 1.44568 19.5262 1.52583C19.5262 1.60599 19.5104 1.68535 19.4798 1.75941C19.4491 1.83346 19.4041 1.90075 19.3474 1.95742L10.3983 10.9066C10.2836 11.0209 10.1282 11.0849 9.96629 11.0847Z" fill="#4BB543"/>
</g>
<defs>
<clipPath id="clip0_1399_4517">
<rect width="19.678" height="18" fill="white"/>
</clipPath>
</defs>
</svg>
