<svg width="20" height="19" viewBox="0 0 20 19" fill="none" xmlns="http://www.w3.org/2000/svg">
<g clip-path="url(#clip0_1957_10205)">
<path d="M18.6363 2.72728H16.6666V3.9394H18.4848V17.2727H1.51513V3.9394H3.33332V2.72728H1.36362C1.22194 2.72965 1.08212 2.7599 0.952143 2.81631C0.822163 2.87273 0.70457 2.95419 0.60608 3.05606C0.50759 3.15793 0.430132 3.2782 0.378131 3.41001C0.32613 3.54182 0.300604 3.68258 0.303012 3.82425V17.3879C0.300604 17.5296 0.32613 17.6703 0.378131 17.8021C0.430132 17.9339 0.50759 18.0542 0.60608 18.1561C0.70457 18.2579 0.822163 18.3394 0.952143 18.3958C1.08212 18.4522 1.22194 18.4825 1.36362 18.4849H18.6363C18.778 18.4825 18.9178 18.4522 19.0478 18.3958C19.1778 18.3394 19.2954 18.2579 19.3939 18.1561C19.4924 18.0542 19.5698 17.9339 19.6218 17.8021C19.6738 17.6703 19.6994 17.5296 19.6969 17.3879V3.82425C19.6994 3.68258 19.6738 3.54182 19.6218 3.41001C19.5698 3.2782 19.4924 3.15793 19.3939 3.05606C19.2954 2.95419 19.1778 2.87273 19.0478 2.81631C18.9178 2.7599 18.778 2.72965 18.6363 2.72728Z" fill="#888888"/>
<path d="M3.93945 7.57576H5.15157V8.78788H3.93945V7.57576Z" fill="#888888"/>
<path d="M7.57581 7.57576H8.78793V8.78788H7.57581V7.57576Z" fill="#888888"/>
<path d="M11.2122 7.57576H12.4243V8.78788H11.2122V7.57576Z" fill="#888888"/>
<path d="M14.8485 7.57576H16.0606V8.78788H14.8485V7.57576Z" fill="#888888"/>
<path d="M3.93945 10.6061H5.15157V11.8182H3.93945V10.6061Z" fill="#888888"/>
<path d="M7.57581 10.6061H8.78793V11.8182H7.57581V10.6061Z" fill="#888888"/>
<path d="M11.2122 10.6061H12.4243V11.8182H11.2122V10.6061Z" fill="#888888"/>
<path d="M14.8485 10.6061H16.0606V11.8182H14.8485V10.6061Z" fill="#888888"/>
<path d="M3.93945 13.6364H5.15157V14.8485H3.93945V13.6364Z" fill="#888888"/>
<path d="M7.57581 13.6364H8.78793V14.8485H7.57581V13.6364Z" fill="#888888"/>
<path d="M11.2122 13.6364H12.4243V14.8485H11.2122V13.6364Z" fill="#888888"/>
<path d="M14.8485 13.6364H16.0606V14.8485H14.8485V13.6364Z" fill="#888888"/>
<path d="M5.15147 5.15151C5.31221 5.15151 5.46636 5.08766 5.58002 4.974C5.69368 4.86034 5.75753 4.70619 5.75753 4.54545V0.909085C5.75753 0.748348 5.69368 0.594194 5.58002 0.480535C5.46636 0.366877 5.31221 0.303024 5.15147 0.303024C4.99073 0.303024 4.83658 0.366877 4.72292 0.480535C4.60926 0.594194 4.54541 0.748348 4.54541 0.909085V4.54545C4.54541 4.70619 4.60926 4.86034 4.72292 4.974C4.83658 5.08766 4.99073 5.15151 5.15147 5.15151Z" fill="#888888"/>
<path d="M14.8485 5.15151C15.0092 5.15151 15.1634 5.08766 15.277 4.974C15.3907 4.86034 15.4546 4.70619 15.4546 4.54545V0.909085C15.4546 0.748348 15.3907 0.594194 15.277 0.480535C15.1634 0.366877 15.0092 0.303024 14.8485 0.303024C14.6878 0.303024 14.5336 0.366877 14.4199 0.480535C14.3063 0.594194 14.2424 0.748348 14.2424 0.909085V4.54545C14.2424 4.70619 14.3063 4.86034 14.4199 4.974C14.5336 5.08766 14.6878 5.15151 14.8485 5.15151Z" fill="#888888"/>
<path d="M6.96973 2.72728H13.0303V3.9394H6.96973V2.72728Z" fill="#888888"/>
</g>
<defs>
<clipPath id="clip0_1957_10205">
<rect width="20" height="18.6364" fill="white"/>
</clipPath>
</defs>
</svg>
