<svg width="20" height="27" viewBox="0 0 20 27" fill="none" xmlns="http://www.w3.org/2000/svg">
<g clip-path="url(#clip0_2012_9060)">
<path d="M16.5208 26.6364H2.97917C2.18922 26.6358 1.43179 26.3217 0.873212 25.7631C0.314634 25.2046 0.000573882 24.4471 0 23.6572V3.61552C0.000573882 2.82557 0.314634 2.06814 0.873212 1.50956C1.43179 0.950986 2.18922 0.636926 2.97917 0.636353L16.5208 0.636353C17.3108 0.636926 18.0682 0.950986 18.6268 1.50956C19.1854 2.06814 19.4994 2.82557 19.5 3.61552V23.6572C19.4994 24.4471 19.1854 25.2046 18.6268 25.7631C18.0682 26.3217 17.3108 26.6358 16.5208 26.6364ZM2.97917 2.26135C2.23275 2.26135 1.625 2.8691 1.625 3.61552V23.6572C1.625 24.4036 2.23275 25.0114 2.97917 25.0114H16.5208C17.2673 25.0114 17.875 24.4036 17.875 23.6572V3.61552C17.875 2.8691 17.2673 2.26135 16.5208 2.26135H2.97917Z" fill="#4BB543"/>
<path d="M15.4375 16.3447H4.0625C3.84701 16.3447 3.64035 16.2591 3.48798 16.1067C3.3356 15.9543 3.25 15.7477 3.25 15.5322C3.25 15.3167 3.3356 15.11 3.48798 14.9577C3.64035 14.8053 3.84701 14.7197 4.0625 14.7197H15.4375C15.653 14.7197 15.8597 14.8053 16.012 14.9577C16.1644 15.11 16.25 15.3167 16.25 15.5322C16.25 15.7477 16.1644 15.9543 16.012 16.1067C15.8597 16.2591 15.653 16.3447 15.4375 16.3447ZM15.4375 20.678H4.0625C3.84701 20.678 3.64035 20.5924 3.48798 20.44C3.3356 20.2877 3.25 20.081 3.25 19.8655C3.25 19.65 3.3356 19.4434 3.48798 19.291C3.64035 19.1386 3.84701 19.053 4.0625 19.053H15.4375C15.653 19.053 15.8597 19.1386 16.012 19.291C16.1644 19.4434 16.25 19.65 16.25 19.8655C16.25 20.081 16.1644 20.2877 16.012 20.44C15.8597 20.5924 15.653 20.678 15.4375 20.678ZM15.4375 12.0114H4.0625C3.84701 12.0114 3.64035 11.9258 3.48798 11.7734C3.3356 11.621 3.25 11.4143 3.25 11.1989C3.25 10.9834 3.3356 10.7767 3.48798 10.6243C3.64035 10.472 3.84701 10.3864 4.0625 10.3864H15.4375C15.653 10.3864 15.8597 10.472 16.012 10.6243C16.1644 10.7767 16.25 10.9834 16.25 11.1989C16.25 11.4143 16.1644 11.621 16.012 11.7734C15.8597 11.9258 15.653 12.0114 15.4375 12.0114ZM10.0208 7.67802H4.0625C3.84701 7.67802 3.64035 7.59242 3.48798 7.44004C3.3356 7.28767 3.25 7.08101 3.25 6.86552C3.25 6.65003 3.3356 6.44337 3.48798 6.291C3.64035 6.13862 3.84701 6.05302 4.0625 6.05302H10.0208C10.2363 6.05302 10.443 6.13862 10.5954 6.291C10.7477 6.44337 10.8333 6.65003 10.8333 6.86552C10.8333 7.08101 10.7477 7.28767 10.5954 7.44004C10.443 7.59242 10.2363 7.67802 10.0208 7.67802Z" fill="#4BB543"/>
</g>
<defs>
<clipPath id="clip0_2012_9060">
<rect width="19.5" height="26" fill="white" transform="translate(0 0.636353)"/>
</clipPath>
</defs>
</svg>
