<svg width="20" height="20" viewBox="0 0 20 20" fill="none" xmlns="http://www.w3.org/2000/svg">
<g clip-path="url(#clip0_1379_3494)">
<path d="M16.25 20.0001H12.9167C12.8062 20.0001 12.7002 19.9562 12.6221 19.8781C12.5439 19.7999 12.5 19.6939 12.5 19.5834V13.7501C12.5 13.6396 12.4561 13.5336 12.378 13.4555C12.2999 13.3773 12.1939 13.3334 12.0834 13.3334H7.9167C7.8062 13.3334 7.70021 13.3773 7.62207 13.4555C7.54393 13.5336 7.50004 13.6396 7.50004 13.7501V19.5834C7.50004 19.6939 7.45614 19.7999 7.378 19.8781C7.29986 19.9562 7.19388 20.0001 7.08337 20.0001H3.75004C3.06087 20.0001 2.50004 19.4393 2.50004 18.7501V10.8334H0.833369C0.668116 10.8331 0.506679 10.7837 0.369497 10.6916C0.232315 10.5995 0.125557 10.4687 0.0627406 10.3158C-7.6099e-05 10.163 -0.0161267 9.99494 0.0166209 9.83296C0.0493685 9.67099 0.129442 9.52237 0.246702 9.40593L9.70837 0.119263C9.78636 0.0431158 9.89104 0.000488281 10 0.000488281C10.109 0.000488281 10.2137 0.0431158 10.2917 0.119263L19.75 9.4026C19.8682 9.51865 19.9493 9.66725 19.9828 9.82949C20.0163 9.99172 20.0008 10.1603 19.9383 10.3137C19.8757 10.4671 19.769 10.5984 19.6316 10.691C19.4942 10.7835 19.3324 10.8331 19.1667 10.8334H17.5V18.7501C17.5 19.4393 16.9392 20.0001 16.25 20.0001ZM13.3334 19.1668H16.25C16.3605 19.1668 16.4665 19.1229 16.5447 19.0447C16.6228 18.9666 16.6667 18.8606 16.6667 18.7501V10.4168C16.6667 10.3063 16.7106 10.2003 16.7887 10.1221C16.8669 10.044 16.9729 10.0001 17.0834 10.0001H19.1667L10 1.00093L0.833369 9.9976L2.9167 10.0001C3.02721 10.0001 3.13319 10.044 3.21133 10.1221C3.28947 10.2003 3.33337 10.3063 3.33337 10.4168V18.7501C3.33337 18.8606 3.37727 18.9666 3.45541 19.0447C3.53355 19.1229 3.63953 19.1668 3.75004 19.1668H6.6667V13.7501C6.6667 13.0609 7.22754 12.5001 7.9167 12.5001H12.0834C12.7725 12.5001 13.3334 13.0609 13.3334 13.7501V19.1668Z" fill="#00529B"/>
</g>
<defs>
<clipPath id="clip0_1379_3494">
<rect width="20" height="20" fill="white"/>
</clipPath>
</defs>
</svg>
