<svg width="20" height="20" viewBox="0 0 20 20" fill="none" xmlns="http://www.w3.org/2000/svg">
<g clip-path="url(#clip0_4193_3878)">
<path d="M16.25 20.0001H12.9166C12.8061 20.0001 12.7002 19.9562 12.622 19.8781C12.5439 19.7999 12.5 19.6939 12.5 19.5834V13.7501C12.5 13.6396 12.4561 13.5336 12.3779 13.4555C12.2998 13.3773 12.1938 13.3334 12.0833 13.3334H7.91664C7.80613 13.3334 7.70015 13.3773 7.62201 13.4555C7.54387 13.5336 7.49997 13.6396 7.49997 13.7501V19.5834C7.49997 19.6939 7.45608 19.7999 7.37794 19.8781C7.2998 19.9562 7.19381 20.0001 7.08331 20.0001H3.74997C3.06081 20.0001 2.49997 19.4393 2.49997 18.7501V10.8334H0.833308C0.668055 10.8331 0.506618 10.7837 0.369436 10.6916C0.232254 10.5995 0.125496 10.4687 0.0626796 10.3158C-0.000137134 10.163 -0.0161878 9.99494 0.0165598 9.83296C0.0493074 9.67099 0.129381 9.52237 0.246641 9.40593L9.70831 0.119263C9.7863 0.0431158 9.89097 0.000488281 9.99997 0.000488281C10.109 0.000488281 10.2137 0.0431158 10.2916 0.119263L19.75 9.4026C19.8682 9.51865 19.9492 9.66725 19.9827 9.82949C20.0162 9.99172 20.0007 10.1603 19.9382 10.3137C19.8757 10.4671 19.7689 10.5984 19.6315 10.691C19.4941 10.7835 19.3323 10.8331 19.1666 10.8334H17.5V18.7501C17.5 19.4393 16.9391 20.0001 16.25 20.0001ZM13.3333 19.1668H16.25C16.3605 19.1668 16.4665 19.1229 16.5446 19.0447C16.6227 18.9666 16.6666 18.8606 16.6666 18.7501V10.4168C16.6666 10.3063 16.7105 10.2003 16.7887 10.1221C16.8668 10.044 16.9728 10.0001 17.0833 10.0001H19.1666L9.99997 1.00093L0.833308 9.9976L2.91664 10.0001C3.02715 10.0001 3.13313 10.044 3.21127 10.1221C3.28941 10.2003 3.33331 10.3063 3.33331 10.4168V18.7501C3.33331 18.8606 3.37721 18.9666 3.45535 19.0447C3.53349 19.1229 3.63947 19.1668 3.74997 19.1668H6.66664V13.7501C6.66664 13.0609 7.22747 12.5001 7.91664 12.5001H12.0833C12.7725 12.5001 13.3333 13.0609 13.3333 13.7501V19.1668Z" fill="#495057"/>
</g>
<defs>
<clipPath id="clip0_4193_3878">
<rect width="20" height="20" fill="white"/>
</clipPath>
</defs>
</svg>
