<svg width="15" height="20" viewBox="0 0 15 20" fill="none" xmlns="http://www.w3.org/2000/svg">
<g clip-path="url(#clip0_1958_10223)">
<path d="M7.5 20C7.39846 19.9999 7.30042 19.9629 7.22417 19.8958C6.92917 19.635 0 13.4533 0 7.5C0 3.36417 3.365 0 7.5 0C11.635 0 15 3.36417 15 7.5C15 13.4533 8.07083 19.635 7.77583 19.8958C7.69958 19.9629 7.60154 19.9999 7.5 20ZM7.5 0.833333C3.82417 0.833333 0.833333 3.82417 0.833333 7.5C0.833333 12.4317 6.20917 17.7983 7.5 19.0158C8.79083 17.7983 14.1667 12.4317 14.1667 7.5C14.1667 3.82417 11.1758 0.833333 7.5 0.833333Z" fill="#888888"/>
<path d="M7.50004 11.6667C5.20254 11.6667 3.33337 9.7975 3.33337 7.5C3.33337 5.20249 5.20254 3.33333 7.50004 3.33333C9.79754 3.33333 11.6667 5.20249 11.6667 7.5C11.6667 9.7975 9.79754 11.6667 7.50004 11.6667ZM7.50004 4.16666C5.66171 4.16666 4.16671 5.66166 4.16671 7.5C4.16671 9.33833 5.66171 10.8333 7.50004 10.8333C9.33837 10.8333 10.8334 9.33833 10.8334 7.5C10.8334 5.66166 9.33837 4.16666 7.50004 4.16666Z" fill="#888888"/>
</g>
<defs>
<clipPath id="clip0_1958_10223">
<rect width="15" height="20" fill="white"/>
</clipPath>
</defs>
</svg>
