<svg width="24" height="26" viewBox="0 0 24 26" fill="none" xmlns="http://www.w3.org/2000/svg">
<g clip-path="url(#clip0_1660_9576)">
<path d="M21.1927 15.1667C21.0856 15.1666 20.981 15.1349 20.892 15.0755C20.8029 15.016 20.7335 14.9315 20.6925 14.8326C20.6515 14.7338 20.6406 14.6249 20.6614 14.5199C20.6822 14.4149 20.7336 14.3184 20.8092 14.2426L22.5923 12.4594L20.8092 10.6763C20.7105 10.5741 20.6559 10.4373 20.6571 10.2952C20.6584 10.1532 20.7153 10.0174 20.8158 9.91694C20.9162 9.81651 21.0521 9.75954 21.1941 9.75831C21.3361 9.75707 21.4729 9.81167 21.5751 9.91034L23.7418 12.077C23.8433 12.1786 23.9004 12.3163 23.9004 12.46C23.9004 12.6036 23.8433 12.7413 23.7418 12.8429L21.5751 15.0096C21.4733 15.1103 21.3359 15.1668 21.1927 15.1667Z" fill="#495057"/>
<path d="M23.0886 13H11.4428C11.2991 13 11.1614 12.9429 11.0598 12.8414C10.9582 12.7398 10.9011 12.602 10.9011 12.4583C10.9011 12.3147 10.9582 12.1769 11.0598 12.0753C11.1614 11.9737 11.2991 11.9167 11.4428 11.9167H23.0886C23.2323 11.9167 23.3701 11.9737 23.4716 12.0753C23.5732 12.1769 23.6303 12.3147 23.6303 12.4583C23.6303 12.602 23.5732 12.7398 23.4716 12.8414C23.3701 12.9429 23.2323 13 23.0886 13Z" fill="#495057"/>
<path d="M14.6926 26H2.77596C2.05784 25.9994 1.3693 25.7139 0.861513 25.2061C0.353726 24.6983 0.0682008 24.0098 0.067627 23.2917V2.70833C0.067627 1.21442 1.28204 0 2.77596 0H14.6926C16.1865 0 17.401 1.21442 17.401 2.70833V9.20833C17.401 9.35199 17.3439 9.48977 17.2423 9.59135C17.1407 9.69293 17.003 9.75 16.8593 9.75C16.7156 9.75 16.5779 9.69293 16.4763 9.59135C16.3747 9.48977 16.3176 9.35199 16.3176 9.20833V2.70833C16.3176 1.81242 15.5885 1.08333 14.6926 1.08333H2.77596C1.88004 1.08333 1.15096 1.81242 1.15096 2.70833V23.2917C1.15096 24.1876 1.88004 24.9167 2.77596 24.9167H14.6926C15.5885 24.9167 16.3176 24.1876 16.3176 23.2917V15.7083C16.3176 15.5647 16.3747 15.4269 16.4763 15.3253C16.5779 15.2237 16.7156 15.1667 16.8593 15.1667C17.003 15.1667 17.1407 15.2237 17.2423 15.3253C17.3439 15.4269 17.401 15.5647 17.401 15.7083V23.2917C17.401 24.7856 16.1865 26 14.6926 26Z" fill="#495057"/>
<path d="M10.901 3.25H6.56771C5.67179 3.25 4.94271 2.52092 4.94271 1.625C4.94271 1.32708 4.69896 1.08333 4.40104 1.08333C4.25738 1.08333 4.11961 1.02627 4.01803 0.924683C3.91644 0.823101 3.85938 0.685326 3.85938 0.541667C3.85938 0.398008 3.91644 0.260233 4.01803 0.158651C4.11961 0.0570683 4.25738 0 4.40104 0C5.29696 0 6.02604 0.729083 6.02604 1.625C6.02604 1.92292 6.26979 2.16667 6.56771 2.16667H10.901C11.199 2.16667 11.4427 1.92292 11.4427 1.625C11.4427 0.729083 12.1718 0 13.0677 0C13.2114 0 13.3491 0.0570683 13.4507 0.158651C13.5523 0.260233 13.6094 0.398008 13.6094 0.541667C13.6094 0.685326 13.5523 0.823101 13.4507 0.924683C13.3491 1.02627 13.2114 1.08333 13.0677 1.08333C12.7698 1.08333 12.526 1.32708 12.526 1.625C12.526 2.52092 11.797 3.25 10.901 3.25Z" fill="#495057"/>
</g>
<defs>
<clipPath id="clip0_1660_9576">
<rect width="23.9688" height="26" fill="white"/>
</clipPath>
</defs>
</svg>
