<svg width="26" height="26" viewBox="0 0 26 26" fill="none" xmlns="http://www.w3.org/2000/svg">
<g clip-path="url(#clip0_1028_32)">
<path d="M12.7968 14.0833C12.669 14.0835 12.5454 14.0381 12.448 13.9555C12.24 13.7811 7.38013 9.63517 7.38013 5.41667C7.38013 2.42992 9.81004 0 12.7968 0C15.7835 0 18.2135 2.42992 18.2135 5.41667C18.2135 9.63517 13.3536 13.7811 13.1456 13.9555C13.0482 14.0381 12.9246 14.0835 12.7968 14.0833ZM12.7968 1.08333C10.407 1.08333 8.46346 3.02683 8.46346 5.41667C8.46346 8.52475 11.7102 11.8029 12.7968 12.8137C13.8834 11.8029 17.1301 8.52475 17.1301 5.41667C17.1301 3.02683 15.1866 1.08333 12.7968 1.08333Z" fill="#D7A319"/>
<path d="M12.7968 7.58333C11.6019 7.58333 10.6301 6.61158 10.6301 5.41667C10.6301 4.22175 11.6019 3.25 12.7968 3.25C13.9917 3.25 14.9635 4.22175 14.9635 5.41667C14.9635 6.61158 13.9917 7.58333 12.7968 7.58333ZM12.7968 4.33333C12.5179 4.34581 12.2545 4.4654 12.0615 4.6672C11.8685 4.869 11.7608 5.13745 11.7608 5.41667C11.7608 5.69588 11.8685 5.96434 12.0615 6.16614C12.2545 6.36793 12.5179 6.48752 12.7968 6.5C13.0757 6.48752 13.3391 6.36793 13.5321 6.16614C13.7251 5.96434 13.8328 5.69588 13.8328 5.41667C13.8328 5.13745 13.7251 4.869 13.5321 4.6672C13.3391 4.4654 13.0757 4.34581 12.7968 4.33333Z" fill="#D7A319"/>
<path d="M22.8609 26H2.73259C2.35403 25.9999 1.97968 25.9205 1.63371 25.7669C1.28773 25.6132 0.97781 25.3887 0.723939 25.1079C0.470069 24.8271 0.277889 24.4962 0.1598 24.1365C0.0417111 23.7768 0.000335574 23.3964 0.0383433 23.0198L1.77168 5.6875C1.83597 5.01842 2.14794 4.39751 2.64638 3.94657C3.14482 3.49562 3.79377 3.24719 4.46593 3.25H4.83426C4.97792 3.25 5.11569 3.30707 5.21728 3.40865C5.31886 3.51023 5.37593 3.64801 5.37593 3.79167C5.37593 3.93533 5.31886 4.0731 5.21728 4.17468C5.11569 4.27627 4.97792 4.33333 4.83426 4.33333H4.46593C3.62526 4.33333 2.93084 4.96167 2.84959 5.79475L1.11518 23.1292C1.06859 23.5918 1.21484 24.0348 1.52576 24.3804C1.83343 24.7206 2.27326 24.9167 2.73259 24.9167H22.8609C23.0879 24.9162 23.3123 24.8684 23.5197 24.7761C23.7271 24.6838 23.9129 24.5492 24.0653 24.3809C24.2176 24.2126 24.333 24.0143 24.4041 23.7987C24.4753 23.5831 24.5005 23.3551 24.4783 23.1292L22.745 5.79583C22.7064 5.39426 22.5191 5.02162 22.2198 4.75104C21.9206 4.48046 21.531 4.33148 21.1276 4.33333H20.7593C20.6156 4.33333 20.4778 4.27627 20.3762 4.17468C20.2747 4.0731 20.2176 3.93533 20.2176 3.79167C20.2176 3.64801 20.2747 3.51023 20.3762 3.40865C20.4778 3.30707 20.6156 3.25 20.7593 3.25H21.1287C22.5283 3.25 23.6864 4.29867 23.8229 5.68858L25.5563 23.0208C25.5941 23.3975 25.5526 23.7779 25.4344 24.1375C25.3161 24.4971 25.1238 24.828 24.8699 25.1087C24.6159 25.3894 24.3059 25.6138 23.9599 25.7673C23.6138 25.9208 23.2395 26.0001 22.8609 26Z" fill="#D7A319"/>
<path d="M1.6926 15.1775C1.54894 15.1776 1.41111 15.1207 1.30942 15.0192C1.20774 14.9178 1.15053 14.78 1.15039 14.6364C1.15025 14.4927 1.20718 14.3549 1.30866 14.2532C1.41014 14.1515 1.54786 14.0943 1.69152 14.0942L9.22068 14.0833C9.36434 14.0832 9.50326 14.1401 9.60494 14.2416C9.70662 14.3431 9.76383 14.4808 9.76397 14.6245C9.76412 14.7681 9.70719 14.906 9.60571 15.0076C9.50423 15.1093 9.36651 15.1665 9.22285 15.1667L1.6926 15.1775ZM9.67352 25.7563L8.77002 25.1593L15.92 14.326C15.9692 14.2514 16.0361 14.1902 16.1147 14.1478C16.1934 14.1055 16.2813 14.0833 16.3707 14.0833L24.1707 14.0725L24.1728 15.1558L16.6632 15.1667L9.67352 25.7563Z" fill="#D7A319"/>
</g>
<defs>
<clipPath id="clip0_1028_32">
<rect width="25.5938" height="26" fill="white"/>
</clipPath>
</defs>
</svg>
