<svg width="17" height="20" viewBox="0 0 17 20" fill="none" xmlns="http://www.w3.org/2000/svg">
<g clip-path="url(#clip0_1660_9036)">
<path fill-rule="evenodd" clip-rule="evenodd" d="M8.21426 0.952381C7.77652 0.952381 7.34306 1.0386 6.93865 1.20612C6.53423 1.37363 6.16676 1.61916 5.85723 1.92869C5.54771 2.23822 5.30217 2.60568 5.13466 3.0101C4.96714 3.41452 4.88092 3.84797 4.88092 4.28571C4.88092 4.72345 4.96714 5.15691 5.13466 5.56133C5.30217 5.96574 5.54771 6.33321 5.85723 6.64274C6.16676 6.95227 6.53423 7.1978 6.93865 7.36531C7.34306 7.53283 7.77652 7.61905 8.21426 7.61905C9.09831 7.61905 9.94616 7.26786 10.5713 6.64274C11.1964 6.01762 11.5476 5.16977 11.5476 4.28571C11.5476 3.40166 11.1964 2.55381 10.5713 1.92869C9.94616 1.30357 9.09831 0.952381 8.21426 0.952381ZM3.92854 4.28571C3.92854 3.14907 4.38007 2.05898 5.1838 1.25526C5.98753 0.451529 7.07762 0 8.21426 0C9.3509 0 10.441 0.451529 11.2447 1.25526C12.0484 2.05898 12.5 3.14907 12.5 4.28571C12.5 5.42236 12.0484 6.51244 11.2447 7.31617C10.441 8.1199 9.3509 8.57143 8.21426 8.57143C7.07762 8.57143 5.98753 8.1199 5.1838 7.31617C4.38007 6.51244 3.92854 5.42236 3.92854 4.28571ZM3.72378 9.72095C3.7794 9.75763 3.8267 9.80557 3.86262 9.86168C3.89855 9.91779 3.92231 9.98081 3.93235 10.0467C3.94664 10.1419 4.01521 10.2829 4.21807 10.4533C4.41902 10.6219 4.71902 10.7914 5.11331 10.94C5.90188 11.2371 6.9933 11.4286 8.21426 11.4286C9.43521 11.4286 10.5266 11.2381 11.3143 10.94C11.7095 10.7914 12.0095 10.6219 12.2095 10.4543C12.4133 10.2829 12.4819 10.1419 12.4962 10.0467C12.5061 9.98086 12.5297 9.91786 12.5654 9.86173C12.6012 9.8056 12.6483 9.75759 12.7038 9.7208C12.7592 9.68401 12.8218 9.65925 12.8874 9.64812C12.953 9.63699 13.0202 9.63974 13.0847 9.65619C14.0071 9.8922 14.8247 10.4285 15.4085 11.1805C15.9924 11.9325 16.3094 12.8575 16.3095 13.8095V19.5238C16.3095 19.6501 16.2593 19.7712 16.17 19.8605C16.0807 19.9498 15.9596 20 15.8333 20H0.595209C0.468915 20 0.347795 19.9498 0.258492 19.8605C0.169189 19.7712 0.119019 19.6501 0.119019 19.5238V13.8095C0.119332 12.8576 0.436409 11.9329 1.02027 11.1811C1.60414 10.4293 2.42159 9.89311 3.34378 9.65714C3.40821 9.64058 3.4754 9.6377 3.54102 9.64869C3.60663 9.65968 3.66826 9.68429 3.72378 9.72095ZM3.18473 10.7067C2.56172 10.952 2.02696 11.3791 1.65004 11.9325C1.27312 12.4859 1.0715 13.14 1.0714 13.8095V19.0476H15.3571V13.8095C15.3571 12.4 14.4809 11.1933 13.2438 10.7067C13.1333 10.8857 12.9866 11.0448 12.8228 11.1829C12.5143 11.4419 12.1085 11.6581 11.6514 11.8305C10.7333 12.1781 9.52378 12.381 8.21426 12.381C6.90473 12.381 5.69521 12.1781 4.77711 11.8314C4.31997 11.6581 3.91521 11.4419 3.60569 11.1829C3.44094 11.0475 3.29884 10.8868 3.18473 10.7067Z" fill="#00529B"/>
</g>
<defs>
<clipPath id="clip0_1660_9036">
<rect width="16.4286" height="20" fill="white"/>
</clipPath>
</defs>
</svg>
