<svg width="17" height="20" viewBox="0 0 17 20" fill="none" xmlns="http://www.w3.org/2000/svg">
<g clip-path="url(#clip0_4193_3898)">
<path fill-rule="evenodd" clip-rule="evenodd" d="M8.21438 0.952381C7.77664 0.952381 7.34319 1.0386 6.93877 1.20612C6.53435 1.37363 6.16689 1.61916 5.85736 1.92869C5.54783 2.23822 5.3023 2.60568 5.13478 3.0101C4.96726 3.41452 4.88105 3.84797 4.88105 4.28571C4.88105 4.72345 4.96726 5.15691 5.13478 5.56133C5.3023 5.96574 5.54783 6.33321 5.85736 6.64274C6.16689 6.95227 6.53435 7.1978 6.93877 7.36531C7.34319 7.53283 7.77664 7.61905 8.21438 7.61905C9.09843 7.61905 9.94628 7.26786 10.5714 6.64274C11.1965 6.01762 11.5477 5.16977 11.5477 4.28571C11.5477 3.40166 11.1965 2.55381 10.5714 1.92869C9.94628 1.30357 9.09843 0.952381 8.21438 0.952381ZM3.92866 4.28571C3.92866 3.14907 4.38019 2.05898 5.18392 1.25526C5.98765 0.451529 7.07774 0 8.21438 0C9.35102 0 10.4411 0.451529 11.2448 1.25526C12.0486 2.05898 12.5001 3.14907 12.5001 4.28571C12.5001 5.42236 12.0486 6.51244 11.2448 7.31617C10.4411 8.1199 9.35102 8.57143 8.21438 8.57143C7.07774 8.57143 5.98765 8.1199 5.18392 7.31617C4.38019 6.51244 3.92866 5.42236 3.92866 4.28571ZM3.7239 9.72095C3.77952 9.75763 3.82682 9.80557 3.86275 9.86168C3.89867 9.91779 3.92243 9.98081 3.93247 10.0467C3.94676 10.1419 4.01533 10.2829 4.21819 10.4533C4.41914 10.6219 4.71914 10.7914 5.11343 10.94C5.902 11.2371 6.99343 11.4286 8.21438 11.4286C9.43533 11.4286 10.5268 11.2381 11.3144 10.94C11.7096 10.7914 12.0096 10.6219 12.2096 10.4543C12.4134 10.2829 12.482 10.1419 12.4963 10.0467C12.5062 9.98086 12.5298 9.91786 12.5656 9.86173C12.6013 9.8056 12.6484 9.75759 12.7039 9.7208C12.7594 9.68401 12.8219 9.65925 12.8875 9.64812C12.9531 9.63699 13.0204 9.63974 13.0849 9.65619C14.0072 9.8922 14.8248 10.4285 15.4087 11.1805C15.9925 11.9325 16.3095 12.8575 16.3096 13.8095V19.5238C16.3096 19.6501 16.2594 19.7712 16.1701 19.8605C16.0808 19.9498 15.9597 20 15.8334 20H0.595331C0.469038 20 0.347917 19.9498 0.258614 19.8605C0.169311 19.7712 0.119141 19.6501 0.119141 19.5238V13.8095C0.119455 12.8576 0.436531 11.9329 1.0204 11.1811C1.60426 10.4293 2.42171 9.89311 3.3439 9.65714C3.40834 9.64058 3.47552 9.6377 3.54114 9.64869C3.60675 9.65968 3.66838 9.68429 3.7239 9.72095ZM3.18485 10.7067C2.56184 10.952 2.02708 11.3791 1.65016 11.9325C1.27325 12.4859 1.07162 13.14 1.07152 13.8095V19.0476H15.3572V13.8095C15.3572 12.4 14.481 11.1933 13.2439 10.7067C13.1334 10.8857 12.9868 11.0448 12.823 11.1829C12.5144 11.4419 12.1087 11.6581 11.6515 11.8305C10.7334 12.1781 9.5239 12.381 8.21438 12.381C6.90486 12.381 5.69533 12.1781 4.77724 11.8314C4.32009 11.6581 3.91533 11.4419 3.60581 11.1829C3.44106 11.0475 3.29896 10.8868 3.18485 10.7067Z" fill="#495057"/>
</g>
<defs>
<clipPath id="clip0_4193_3898">
<rect width="16.4286" height="20" fill="white"/>
</clipPath>
</defs>
</svg>
