<svg width="20" height="20" viewBox="0 0 20 20" fill="none" xmlns="http://www.w3.org/2000/svg">
<g clip-path="url(#clip0_4193_3889)">
<path d="M3.75 20C3.63949 20 3.53351 19.9561 3.45537 19.878C3.37723 19.7998 3.33333 19.6938 3.33333 19.5833V15.8333H2.08333C1.531 15.8327 1.00148 15.613 0.610925 15.2224C0.220367 14.8319 0.000661607 14.3023 0 13.75L0 2.08333C0 0.935 0.934167 0 2.08333 0H17.9167C19.0658 0 20 0.935 20 2.08333V13.75C20 14.8983 19.0658 15.8333 17.9167 15.8333H8.08917L4.04417 19.8783C3.96608 19.9562 3.86029 20 3.75 20ZM2.08333 0.833333C1.39417 0.833333 0.833333 1.39417 0.833333 2.08333V13.75C0.833333 14.4392 1.39417 15 2.08333 15H3.75C3.86051 15 3.96649 15.0439 4.04463 15.122C4.12277 15.2002 4.16667 15.3062 4.16667 15.4167V18.5775L7.62167 15.1225C7.66036 15.0837 7.70634 15.0529 7.75696 15.0319C7.80758 15.0108 7.86185 15 7.91667 15H17.9167C18.6058 15 19.1667 14.4392 19.1667 13.75V2.08333C19.1667 1.39417 18.6058 0.833333 17.9167 0.833333H2.08333Z" fill="#495057"/>
<path d="M6.69833 12.5H6.25C5.56083 12.5 5 11.9391 5 11.25V6.53998C5 5.85081 5.56083 5.28998 6.25 5.28998H6.69833C7.3875 5.28998 7.94833 5.85081 7.94833 6.53998V11.25C7.94833 11.9391 7.3875 12.5 6.69833 12.5ZM6.25 6.12331C6.13949 6.12331 6.03351 6.16721 5.95537 6.24535C5.87723 6.32349 5.83333 6.42947 5.83333 6.53998V11.25C5.83333 11.3605 5.87723 11.4665 5.95537 11.5446C6.03351 11.6227 6.13949 11.6666 6.25 11.6666H6.69833C6.80884 11.6666 6.91482 11.6227 6.99296 11.5446C7.0711 11.4665 7.115 11.3605 7.115 11.25V6.53998C7.115 6.42947 7.0711 6.32349 6.99296 6.24535C6.91482 6.16721 6.80884 6.12331 6.69833 6.12331H6.25Z" fill="#495057"/>
<path d="M12.5233 12.5H11.7933C8.69577 12.5 7.3316 11.4592 7.2741 11.415C7.18713 11.3468 7.13081 11.2469 7.11752 11.1372C7.10424 11.0275 7.13508 10.917 7.20327 10.83C7.27145 10.743 7.37139 10.6867 7.4811 10.6734C7.5908 10.6601 7.7013 10.691 7.78827 10.7592C7.79743 10.7658 9.01493 11.6667 11.7933 11.6667H12.5233C12.8022 11.6672 13.0722 11.5685 13.2851 11.3882C13.4979 11.2079 13.6396 10.9577 13.6849 10.6825L14.1508 7.8925C14.1788 7.72385 14.1698 7.55111 14.1244 7.38628C14.079 7.22144 13.9983 7.06846 13.8879 6.93796C13.7774 6.80745 13.6399 6.70254 13.4848 6.63051C13.3298 6.55848 13.1609 6.52106 12.9899 6.52083H10.5991C10.5238 6.52089 10.4498 6.50045 10.3852 6.46169C10.3207 6.42294 10.2678 6.36733 10.2324 6.30083C10.1961 6.23482 10.1787 6.16008 10.1821 6.08481C10.1855 6.00954 10.2095 5.93666 10.2516 5.87417C10.2533 5.87167 10.5799 5.35417 10.5799 4.51083C10.5791 3.65333 10.2241 3.33333 9.99993 3.33333C9.97045 3.33081 9.94075 3.33392 9.91243 3.3425C9.91077 3.3475 9.8191 3.46667 9.8191 4.1125C9.8191 5.73917 7.8141 6.82583 7.72827 6.87167C7.63069 6.92372 7.51643 6.93487 7.41063 6.90268C7.30483 6.87048 7.21615 6.79758 7.1641 6.7C7.11205 6.60242 7.1009 6.48816 7.13309 6.38236C7.16528 6.27656 7.23819 6.18788 7.33577 6.13583C7.79493 5.89 8.98493 5.04583 8.98493 4.11167C8.98493 3.54833 8.98493 2.5 9.99993 2.5C10.6799 2.5 11.4124 3.12917 11.4124 4.51083C11.4124 4.9875 11.3291 5.38667 11.2333 5.68833H12.9883C13.5808 5.68833 14.1399 5.9475 14.5224 6.4C14.9049 6.85167 15.0691 7.44583 14.9716 8.03L14.5058 10.82C14.4292 11.2901 14.1876 11.7175 13.8242 12.0254C13.4608 12.3334 12.9996 12.5016 12.5233 12.5Z" fill="#495057"/>
</g>
<defs>
<clipPath id="clip0_4193_3889">
<rect width="20" height="20" fill="white"/>
</clipPath>
</defs>
</svg>
