<svg width="26" height="27" viewBox="0 0 26 27" fill="none" xmlns="http://www.w3.org/2000/svg">
<g clip-path="url(#clip0_1025_3587)">
<path d="M12.8852 26.6364C12.8051 26.6364 12.726 26.6188 12.6535 26.5846C12.5811 26.5504 12.5171 26.5006 12.4663 26.4388C12.4154 26.3769 12.3789 26.3045 12.3593 26.2269C12.3398 26.1492 12.3377 26.0682 12.3533 25.9896L13.1192 22.16C13.1395 22.0547 13.1912 21.958 13.2676 21.8827L21.6938 13.4565C21.9989 13.1527 22.412 12.9821 22.8426 12.9821C23.2733 12.9821 23.6863 13.1527 23.9915 13.4565L25.5233 14.9884C25.8277 15.2932 25.9987 15.7064 25.9987 16.1372C25.9987 16.568 25.8277 16.9812 25.5233 17.2861L17.0972 25.7123C17.0216 25.7882 16.925 25.8399 16.8198 25.8607L12.9903 26.6266C12.9556 26.6331 12.9204 26.6363 12.8852 26.6364ZM14.1505 22.5316L13.5763 25.4035L16.4482 24.8294L24.7585 16.5191C24.86 16.4175 24.9171 16.2798 24.9171 16.1361C24.9171 15.9925 24.86 15.8548 24.7585 15.7532L23.2267 14.2214C23.1251 14.1198 22.9873 14.0628 22.8437 14.0628C22.7001 14.0628 22.5623 14.1198 22.4608 14.2214L14.1505 22.5316ZM10.2917 23.3864H2.70833C1.99021 23.3858 1.30167 23.1003 0.793886 22.5925C0.286099 22.0847 0.000573807 21.3961 0 20.678L0 6.59469C0 5.10077 1.21442 3.88635 2.70833 3.88635H4.875C5.01866 3.88635 5.15643 3.94342 5.25802 4.045C5.3596 4.14659 5.41667 4.28436 5.41667 4.42802C5.41667 4.57168 5.3596 4.70945 5.25802 4.81104C5.15643 4.91262 5.01866 4.96969 4.875 4.96969H2.70833C1.81242 4.96969 1.08333 5.69877 1.08333 6.59469V20.678C1.08333 21.5739 1.81242 22.303 2.70833 22.303H10.2917C10.4353 22.303 10.5731 22.3601 10.6747 22.4617C10.7763 22.5633 10.8333 22.701 10.8333 22.8447C10.8333 22.9883 10.7763 23.1261 10.6747 23.2277C10.5731 23.3293 10.4353 23.3864 10.2917 23.3864ZM17.875 13.6364C17.7313 13.6364 17.5936 13.5793 17.492 13.4777C17.3904 13.3761 17.3333 13.2383 17.3333 13.0947V6.59469C17.3333 5.69877 16.6042 4.96969 15.7083 4.96969H13.5417C13.398 4.96969 13.2602 4.91262 13.1587 4.81104C13.0571 4.70945 13 4.57168 13 4.42802C13 4.28436 13.0571 4.14659 13.1587 4.045C13.2602 3.94342 13.398 3.88635 13.5417 3.88635H15.7083C17.2023 3.88635 18.4167 5.10077 18.4167 6.59469V13.0947C18.4167 13.2383 18.3596 13.3761 18.258 13.4777C18.1564 13.5793 18.0187 13.6364 17.875 13.6364Z" fill="#E84444"/>
<path d="M12.4583 7.13635H5.95833C5.06242 7.13635 4.33333 6.40727 4.33333 5.51135V3.34469C4.33333 3.20103 4.3904 3.06325 4.49198 2.96167C4.59357 2.86009 4.73134 2.80302 4.875 2.80302H6.55417C6.8055 1.56802 7.90075 0.636353 9.20833 0.636353C10.5159 0.636353 11.6112 1.56802 11.8625 2.80302H13.5417C13.6853 2.80302 13.8231 2.86009 13.9247 2.96167C14.0263 3.06325 14.0833 3.20103 14.0833 3.34469V5.51135C14.0833 6.40727 13.3542 7.13635 12.4583 7.13635ZM5.41667 3.88635V5.51135C5.41667 5.80927 5.66042 6.05302 5.95833 6.05302H12.4583C12.7563 6.05302 13 5.80927 13 5.51135V3.88635H11.375C11.2313 3.88635 11.0936 3.82928 10.992 3.7277C10.8904 3.62612 10.8333 3.48834 10.8333 3.34469C10.8333 2.44877 10.1043 1.71969 9.20833 1.71969C8.31242 1.71969 7.58333 2.44877 7.58333 3.34469C7.58333 3.48834 7.52627 3.62612 7.42468 3.7277C7.3231 3.82928 7.18533 3.88635 7.04167 3.88635H5.41667ZM14.625 10.3864H3.79167C3.64801 10.3864 3.51023 10.3293 3.40865 10.2277C3.30707 10.1261 3.25 9.98835 3.25 9.84469C3.25 9.70103 3.30707 9.56325 3.40865 9.46167C3.51023 9.36009 3.64801 9.30302 3.79167 9.30302H14.625C14.7687 9.30302 14.9064 9.36009 15.008 9.46167C15.1096 9.56325 15.1667 9.70103 15.1667 9.84469C15.1667 9.98835 15.1096 10.1261 15.008 10.2277C14.9064 10.3293 14.7687 10.3864 14.625 10.3864ZM14.625 13.6364H3.79167C3.64801 13.6364 3.51023 13.5793 3.40865 13.4777C3.30707 13.3761 3.25 13.2383 3.25 13.0947C3.25 12.951 3.30707 12.8133 3.40865 12.7117C3.51023 12.6101 3.64801 12.553 3.79167 12.553H14.625C14.7687 12.553 14.9064 12.6101 15.008 12.7117C15.1096 12.8133 15.1667 12.951 15.1667 13.0947C15.1667 13.2383 15.1096 13.3761 15.008 13.4777C14.9064 13.5793 14.7687 13.6364 14.625 13.6364ZM14.625 16.8864H3.79167C3.64801 16.8864 3.51023 16.8293 3.40865 16.7277C3.30707 16.6261 3.25 16.4883 3.25 16.3447C3.25 16.201 3.30707 16.0633 3.40865 15.9617C3.51023 15.8601 3.64801 15.803 3.79167 15.803H14.625C14.7687 15.803 14.9064 15.8601 15.008 15.9617C15.1096 16.0633 15.1667 16.201 15.1667 16.3447C15.1667 16.4883 15.1096 16.6261 15.008 16.7277C14.9064 16.8293 14.7687 16.8864 14.625 16.8864Z" fill="#E84444"/>
</g>
<defs>
<clipPath id="clip0_1025_3587">
<rect width="26" height="26" fill="white" transform="translate(0 0.636353)"/>
</clipPath>
</defs>
</svg>
