<svg width="17" height="21" viewBox="0 0 17 21" fill="none" xmlns="http://www.w3.org/2000/svg">
<path fill-rule="evenodd" clip-rule="evenodd" d="M8.21426 1.58873C7.77652 1.58873 7.34306 1.67495 6.93865 1.84247C6.53423 2.00998 6.16676 2.25552 5.85723 2.56504C5.54771 2.87457 5.30217 3.24204 5.13466 3.64646C4.96714 4.05087 4.88092 4.48433 4.88092 4.92207C4.88092 5.35981 4.96714 5.79326 5.13466 6.19768C5.30217 6.6021 5.54771 6.96956 5.85723 7.27909C6.16676 7.58862 6.53423 7.83415 6.93865 8.00167C7.34306 8.16918 7.77652 8.2554 8.21426 8.2554C9.09831 8.2554 9.94616 7.90421 10.5713 7.27909C11.1964 6.65397 11.5476 5.80612 11.5476 4.92207C11.5476 4.03801 11.1964 3.19017 10.5713 2.56504C9.94616 1.93992 9.09831 1.58873 8.21426 1.58873ZM3.92854 4.92207C3.92854 3.78542 4.38007 2.69534 5.1838 1.89161C5.98753 1.08788 7.07762 0.636353 8.21426 0.636353C9.3509 0.636353 10.441 1.08788 11.2447 1.89161C12.0484 2.69534 12.5 3.78542 12.5 4.92207C12.5 6.05871 12.0484 7.1488 11.2447 7.95252C10.441 8.75625 9.3509 9.20778 8.21426 9.20778C7.07762 9.20778 5.98753 8.75625 5.1838 7.95252C4.38007 7.1488 3.92854 6.05871 3.92854 4.92207ZM3.72378 10.3573C3.7794 10.394 3.8267 10.4419 3.86262 10.498C3.89855 10.5541 3.92231 10.6172 3.93235 10.683C3.94664 10.7783 4.01521 10.9192 4.21807 11.0897C4.41902 11.2583 4.71902 11.4278 5.11331 11.5764C5.90188 11.8735 6.9933 12.0649 8.21426 12.0649C9.43521 12.0649 10.5266 11.8744 11.3143 11.5764C11.7095 11.4278 12.0095 11.2583 12.2095 11.0906C12.4133 10.9192 12.4819 10.7783 12.4962 10.683C12.5061 10.6172 12.5297 10.5542 12.5654 10.4981C12.6012 10.442 12.6483 10.3939 12.7038 10.3572C12.7592 10.3204 12.8218 10.2956 12.8874 10.2845C12.953 10.2733 13.0202 10.2761 13.0847 10.2925C14.0071 10.5286 14.8247 11.0648 15.4085 11.8168C15.9924 12.5689 16.3094 13.4938 16.3095 14.4459V20.1602C16.3095 20.2865 16.2593 20.4076 16.17 20.4969C16.0807 20.5862 15.9596 20.6364 15.8333 20.6364H0.595209C0.468915 20.6364 0.347795 20.5862 0.258492 20.4969C0.169189 20.4076 0.119019 20.2865 0.119019 20.1602V14.4459C0.119332 13.494 0.436409 12.5692 1.02027 11.8174C1.60414 11.0656 2.42159 10.5295 3.34378 10.2935C3.40821 10.2769 3.4754 10.274 3.54102 10.285C3.60663 10.296 3.66826 10.3206 3.72378 10.3573ZM3.18473 11.343C2.56172 11.5883 2.02696 12.0155 1.65004 12.5689C1.27312 13.1223 1.0715 13.7763 1.0714 14.4459V19.684H15.3571V14.4459C15.3571 13.0364 14.4809 11.8297 13.2438 11.343C13.1333 11.5221 12.9866 11.6811 12.8228 11.8192C12.5143 12.0783 12.1085 12.2944 11.6514 12.4668C10.7333 12.8144 9.52378 13.0173 8.21426 13.0173C6.90473 13.0173 5.69521 12.8144 4.77711 12.4678C4.31997 12.2944 3.91521 12.0783 3.60569 11.8192C3.44094 11.6839 3.29884 11.5231 3.18473 11.343Z" fill="#888888"/>
</svg>
