<svg width="45" height="42" viewBox="0 0 45 42" fill="none" xmlns="http://www.w3.org/2000/svg">
<path d="M18.2478 40.1789H4.55285C3.34565 40.1779 2.18818 39.6979 1.33456 38.8443C0.480948 37.9907 0.000964598 36.8332 0 35.626L0 4.66666C0 2.15531 2.0415 0.113815 4.55285 0.113815H39.1545C41.6658 0.113815 43.7073 2.15531 43.7073 4.66666V24.2257C43.7073 24.4672 43.6114 24.6988 43.4406 24.8696C43.2699 25.0403 43.0382 25.1363 42.7967 25.1363C42.5553 25.1363 42.3236 25.0403 42.1529 24.8696C41.9821 24.6988 41.8862 24.4672 41.8862 24.2257V4.66666C41.8862 3.16058 40.6606 1.93495 39.1545 1.93495H4.55285C3.04676 1.93495 1.82114 3.16058 1.82114 4.66666V35.626C1.82114 37.1321 3.04676 38.3577 4.55285 38.3577H18.2478C18.4893 38.3577 18.7209 38.4537 18.8917 38.6244C19.0624 38.7952 19.1584 39.0268 19.1584 39.2683C19.1584 39.5098 19.0624 39.7414 18.8917 39.9122C18.7209 40.0829 18.4893 40.1789 18.2478 40.1789Z" fill="#4BB543"/>
<path d="M42.7967 9.21951H0.910569C0.669071 9.21951 0.437464 9.12358 0.2667 8.95282C0.0959347 8.78205 0 8.55044 0 8.30895C0 8.06745 0.0959347 7.83584 0.2667 7.66508C0.437464 7.49431 0.669071 7.39838 0.910569 7.39838H42.7967C43.0382 7.39838 43.2699 7.49431 43.4406 7.66508C43.6114 7.83584 43.7073 8.06745 43.7073 8.30895C43.7073 8.55044 43.6114 8.78205 43.4406 8.95282C43.2699 9.12358 43.0382 9.21951 42.7967 9.21951ZM34.0152 41.9891C32.2414 41.9891 30.1872 41.4263 27.827 40.3082C25.1973 39.0589 23.9225 39.0989 23.0847 39.1426C22.4073 39.159 21.7007 39.1936 21.0087 38.4998C20.7646 38.2557 19.6555 36.9263 21.8336 34.7464C22.9208 33.6592 24.4124 33.346 25.709 33.3277L18.1586 25.7773C17.7885 25.4049 17.5371 24.9312 17.4358 24.416C17.3346 23.9008 17.3881 23.3672 17.5897 22.8825C17.7913 22.3977 18.1319 21.9834 18.5686 21.6919C19.0052 21.4005 19.5184 21.2448 20.0434 21.2445H20.0453C20.7519 21.2463 21.4166 21.5213 21.9156 22.0221L25.0516 25.1581C25.335 24.5973 25.8077 24.1549 26.386 23.9093C26.9643 23.6636 27.6109 23.6306 28.2113 23.8159C28.3561 23.41 28.5974 23.0454 28.9144 22.7535C29.2315 22.4615 29.6147 22.251 30.0312 22.1401C30.4476 22.0292 30.8848 22.0211 31.3051 22.1167C31.7253 22.2123 32.116 22.4085 32.4436 22.6887C32.5674 22.4392 32.7331 22.2061 32.9407 21.9984V21.9966C33.4381 21.4999 34.1118 21.2203 34.8147 21.219H34.822C35.5304 21.219 36.1933 21.4922 36.6923 21.993L41.6075 26.9101C44.6889 29.9914 44.352 34.4532 40.788 38.0299L40.7862 38.0317L40.7461 38.0718L38.7119 40.106C37.4444 41.3626 35.8855 41.9891 34.0152 41.9891ZM23.5765 37.3106C24.5708 37.3106 26.0987 37.4745 28.6064 38.6619C34.0389 41.2406 36.2443 39.9858 37.4335 38.8185L39.4841 36.7679L39.5169 36.7369C41.6859 34.5224 43.1519 31.0258 40.3419 28.214L35.4084 23.2823C35.3323 23.2058 35.2417 23.1452 35.142 23.1039C35.0423 23.0627 34.9354 23.0416 34.8274 23.042H34.8256C34.6605 23.0411 34.4988 23.0893 34.3611 23.1805C34.2234 23.2716 34.1159 23.4016 34.0521 23.5539C33.9883 23.7062 33.9712 23.874 34.0029 24.0361C34.0346 24.1982 34.1137 24.3472 34.2301 24.4643L35.4594 25.6935C35.5446 25.7779 35.6123 25.8783 35.6585 25.9889C35.7046 26.0996 35.7284 26.2183 35.7284 26.3382C35.7284 26.4581 35.7046 26.5768 35.6585 26.6875C35.6123 26.7982 35.5446 26.8986 35.4594 26.9829C35.2886 27.1536 35.0571 27.2495 34.8156 27.2495C34.5742 27.2495 34.3426 27.1536 34.1718 26.9829L31.3035 24.1146C31.2262 24.0376 31.1344 23.9766 31.0334 23.9352C30.9324 23.8938 30.8242 23.8727 30.7151 23.8732C30.6059 23.8737 30.498 23.8958 30.3974 23.9382C30.2968 23.9805 30.2055 24.0423 30.1289 24.1201C29.9727 24.2756 29.8845 24.4867 29.8834 24.7072C29.8824 24.9276 29.9687 25.1395 30.1234 25.2965L32.1722 27.3453C32.2575 27.4296 32.3251 27.53 32.3713 27.6407C32.4175 27.7514 32.4413 27.8701 32.4413 27.99C32.4413 28.1099 32.4175 28.2286 32.3713 28.3393C32.3251 28.4499 32.2575 28.5503 32.1722 28.6347C32.0015 28.8054 31.7699 28.9013 31.5285 28.9013C31.287 28.9013 31.0554 28.8054 30.8847 28.6347L28.0164 25.7664C27.9388 25.6894 27.8467 25.6286 27.7455 25.5873C27.6443 25.546 27.5359 25.5251 27.4267 25.5258C27.3174 25.5264 27.2093 25.5487 27.1086 25.5912C27.0079 25.6338 26.9166 25.6958 26.8399 25.7737C26.7622 25.85 26.7004 25.941 26.6581 26.0413C26.6158 26.1417 26.5939 26.2495 26.5936 26.3584C26.5932 26.4673 26.6145 26.5752 26.6562 26.6759C26.6978 26.7765 26.7591 26.8679 26.8363 26.9447V26.9465L28.8851 28.9953C28.9703 29.0796 29.038 29.18 29.0842 29.2907C29.1303 29.4013 29.1541 29.52 29.1541 29.6399C29.1541 29.7598 29.1303 29.8786 29.0842 29.9892C29.038 30.0999 28.9703 30.2003 28.8851 30.2846C28.7143 30.4553 28.4828 30.5512 28.2413 30.5512C27.9999 30.5512 27.7683 30.4553 27.5975 30.2846L25.5487 28.2358L25.5451 28.2322L20.6317 23.3206C20.5555 23.2434 20.4648 23.182 20.3648 23.1402C20.2647 23.0983 20.1574 23.0766 20.0489 23.0766C19.9388 23.0768 19.8298 23.0988 19.7283 23.1413C19.6267 23.1839 19.5345 23.246 19.457 23.3242C19.3008 23.4798 19.2126 23.6909 19.2116 23.9113C19.2105 24.1318 19.2968 24.3437 19.4516 24.5007L28.876 33.9251C29.019 34.0682 29.1102 34.2549 29.1353 34.4557C29.1604 34.6564 29.1179 34.8598 29.0146 35.0338C28.9112 35.2077 28.7529 35.3423 28.5645 35.4162C28.3762 35.4901 28.1686 35.4992 27.9745 35.4421C27.9417 35.4312 24.6764 34.4987 23.1266 36.0449C22.4219 36.7497 22.3181 37.1831 22.3363 37.2814C22.4146 37.3361 22.4291 37.3561 23.0174 37.3306C23.1813 37.3179 23.367 37.3106 23.5765 37.3106ZM6.37398 31.6924C6.19403 31.6923 6.01812 31.639 5.86847 31.539C5.71882 31.4391 5.60213 31.297 5.53316 31.1308C5.46418 30.9646 5.446 30.7817 5.48091 30.6051C5.51582 30.4286 5.60225 30.2664 5.7293 30.1389L9.408 26.4602C10.5316 25.3402 12.4766 25.3421 13.593 26.4602C13.9499 26.8172 14.5327 27.0976 15.1464 26.5167C15.2328 26.434 15.3348 26.3693 15.4463 26.3262C15.5579 26.2832 15.6769 26.2627 15.7965 26.2659C15.916 26.2691 16.0338 26.296 16.1429 26.345C16.252 26.394 16.3503 26.4641 16.4321 26.5513C16.7781 26.9155 16.7654 27.4928 16.3975 27.837C15.314 28.8696 13.3999 28.8423 12.3054 27.7478C12.0886 27.5407 11.8003 27.4252 11.5005 27.4252C11.2007 27.4252 10.9124 27.5407 10.6955 27.7478L7.01685 31.4265C6.93246 31.5109 6.83224 31.5779 6.72192 31.6235C6.6116 31.6691 6.49336 31.6925 6.37398 31.6924Z" fill="#4BB543"/>
<path d="M19.0491 34.7154H8.19515C6.68907 34.7154 5.46344 33.4898 5.46344 31.9837V15.5935C5.46344 14.0874 6.68907 12.8618 8.19515 12.8618H20.9431C22.4492 12.8618 23.6748 14.0874 23.6748 15.5935V17.4146C23.6748 17.6561 23.5789 17.8877 23.4081 18.0585C23.2374 18.2293 23.0058 18.3252 22.7643 18.3252C22.5228 18.3252 22.2911 18.2293 22.1204 18.0585C21.9496 17.8877 21.8537 17.6561 21.8537 17.4146V15.5935C21.8537 15.0927 21.4439 14.6829 20.9431 14.6829H8.19515C7.69433 14.6829 7.28458 15.0927 7.28458 15.5935V31.9837C7.28458 32.4846 7.69433 32.8943 8.19515 32.8943H19.0491C19.2906 32.8943 19.5222 32.9902 19.693 33.161C19.8638 33.3318 19.9597 33.5634 19.9597 33.8049C19.9597 34.0464 19.8638 34.278 19.693 34.4487C19.5222 34.6195 19.2906 34.7154 19.0491 34.7154Z" fill="#4BB543"/>
</svg>
