<svg width="25" height="20" viewBox="0 0 25 20" fill="none" xmlns="http://www.w3.org/2000/svg">
<g clip-path="url(#clip0_1379_3498)">
<path fill-rule="evenodd" clip-rule="evenodd" d="M6.92812 1.5106C7.14524 1.07634 7.479 0.711117 7.892 0.455858C8.30499 0.200598 8.78091 0.0653852 9.26642 0.0653687H15.0473C15.5329 0.0653852 16.0088 0.200598 16.4218 0.455858C16.8348 0.711117 17.1685 1.07634 17.3856 1.5106L18.3205 3.38145C18.4509 3.64203 18.6512 3.86116 18.8991 4.01428C19.147 4.1674 19.4326 4.24846 19.7239 4.24838H21.5686C22.262 4.24838 22.927 4.52382 23.4173 5.01411C23.9076 5.5044 24.183 6.16938 24.183 6.86275V17.3203C24.183 18.0136 23.9076 18.6786 23.4173 19.1689C22.927 19.6592 22.262 19.9347 21.5686 19.9347H2.74512C2.05174 19.9347 1.38676 19.6592 0.896471 19.1689C0.40618 18.6786 0.130737 18.0136 0.130737 17.3203V6.86275C0.130737 6.16938 0.40618 5.5044 0.896471 5.01411C1.38676 4.52382 2.05174 4.24838 2.74512 4.24838H4.58982C4.88129 4.24837 5.16699 4.16715 5.41488 4.01384C5.66276 3.86052 5.86303 3.64118 5.99322 3.3804L6.92812 1.5106ZM9.26642 1.11112C8.97496 1.11113 8.68926 1.19235 8.44137 1.34566C8.19348 1.49897 7.99321 1.71832 7.86303 1.97909L6.92812 3.84785C6.71115 4.28231 6.37745 4.64774 5.96445 4.90319C5.55144 5.15864 5.07545 5.29401 4.58982 5.29413H2.74512C2.32909 5.29413 1.9301 5.45939 1.63593 5.75357C1.34175 6.04774 1.17649 6.44673 1.17649 6.86275V17.3203C1.17649 17.7363 1.34175 18.1353 1.63593 18.4295C1.9301 18.7236 2.32909 18.8889 2.74512 18.8889H21.5686C21.9847 18.8889 22.3837 18.7236 22.6778 18.4295C22.972 18.1353 23.1373 17.7363 23.1373 17.3203V6.86275C23.1373 6.44673 22.972 6.04774 22.6778 5.75357C22.3837 5.45939 21.9847 5.29413 21.5686 5.29413H19.7239C19.2384 5.29411 18.7625 5.1589 18.3495 4.90364C17.9365 4.64838 17.6028 4.28316 17.3856 3.8489L16.4507 1.97805C16.3204 1.71747 16.1201 1.49834 15.8722 1.34521C15.6243 1.19209 15.3387 1.11103 15.0473 1.11112H9.26642Z" fill="#00529B"/>
<path fill-rule="evenodd" clip-rule="evenodd" d="M2.22223 3.72549C2.22223 3.30946 2.38749 2.91048 2.68167 2.6163C2.97584 2.32213 3.37483 2.15686 3.79086 2.15686H4.83661C5.25263 2.15686 5.65162 2.32213 5.9458 2.6163C6.23997 2.91048 6.40524 3.30946 6.40524 3.72549V4.24836C6.40524 4.38704 6.35015 4.52003 6.25209 4.61809C6.15403 4.71615 6.02104 4.77124 5.88236 4.77124C5.74368 4.77124 5.61069 4.71615 5.51263 4.61809C5.41457 4.52003 5.35948 4.38704 5.35948 4.24836V3.72549C5.35948 3.58681 5.3044 3.45382 5.20634 3.35576C5.10828 3.2577 4.97528 3.20261 4.83661 3.20261H3.79086C3.65218 3.20261 3.51919 3.2577 3.42113 3.35576C3.32307 3.45382 3.26798 3.58681 3.26798 3.72549V4.77124C3.26798 4.90991 3.21289 5.04291 3.11483 5.14097C3.01678 5.23903 2.88378 5.29412 2.7451 5.29412C2.60643 5.29412 2.47343 5.23903 2.37538 5.14097C2.27732 5.04291 2.22223 4.90991 2.22223 4.77124V3.72549ZM12.1569 6.33987C10.9088 6.33987 9.71183 6.83566 8.82931 7.71819C7.94678 8.60071 7.45099 9.79767 7.45099 11.0457C7.45099 12.2938 7.94678 13.4908 8.82931 14.3733C9.71183 15.2558 10.9088 15.7516 12.1569 15.7516C13.4049 15.7516 14.6019 15.2558 15.4844 14.3733C16.367 13.4908 16.8628 12.2938 16.8628 11.0457C16.8628 9.79767 16.367 8.60071 15.4844 7.71819C14.6019 6.83566 13.4049 6.33987 12.1569 6.33987ZM6.40524 11.0457C6.40524 9.52032 7.01121 8.05737 8.08985 6.97873C9.16849 5.90009 10.6314 5.29412 12.1569 5.29412C13.6823 5.29412 15.1452 5.90009 16.2239 6.97873C17.3025 8.05737 17.9085 9.52032 17.9085 11.0457C17.9085 12.5712 17.3025 14.0341 16.2239 15.1128C15.1452 16.1914 13.6823 16.7974 12.1569 16.7974C10.6314 16.7974 9.16849 16.1914 8.08985 15.1128C7.01121 14.0341 6.40524 12.5712 6.40524 11.0457Z" fill="#00529B"/>
<path fill-rule="evenodd" clip-rule="evenodd" d="M12.1569 9.47712C11.7408 9.47712 11.3418 9.64239 11.0477 9.93656C10.7535 10.2307 10.5882 10.6297 10.5882 11.0458C10.5882 11.4618 10.7535 11.8608 11.0477 12.1549C11.3418 12.4491 11.7408 12.6144 12.1569 12.6144C12.5729 12.6144 12.9719 12.4491 13.266 12.1549C13.5602 11.8608 13.7255 11.4618 13.7255 11.0458C13.7255 10.6297 13.5602 10.2307 13.266 9.93656C12.9719 9.64239 12.5729 9.47712 12.1569 9.47712ZM9.54248 11.0458C9.54248 10.3524 9.81792 9.6874 10.3082 9.19711C10.7985 8.70681 11.4635 8.43137 12.1569 8.43137C12.8502 8.43137 13.5152 8.70681 14.0055 9.19711C14.4958 9.6874 14.7712 10.3524 14.7712 11.0458C14.7712 11.7391 14.4958 12.4041 14.0055 12.8944C13.5152 13.3847 12.8502 13.6601 12.1569 13.6601C11.4635 13.6601 10.7985 13.3847 10.3082 12.8944C9.81792 12.4041 9.54248 11.7391 9.54248 11.0458ZM18.9542 7.9085C18.9542 7.76982 19.0093 7.63682 19.1074 7.53877C19.2055 7.44071 19.3384 7.38562 19.4771 7.38562H21.5686C21.7073 7.38562 21.8403 7.44071 21.9384 7.53877C22.0364 7.63682 22.0915 7.76982 22.0915 7.9085C22.0915 8.04717 22.0364 8.18017 21.9384 8.27823C21.8403 8.37628 21.7073 8.43137 21.5686 8.43137H19.4771C19.3384 8.43137 19.2055 8.37628 19.1074 8.27823C19.0093 8.18017 18.9542 8.04717 18.9542 7.9085Z" fill="#00529B"/>
</g>
<defs>
<clipPath id="clip0_1379_3498">
<rect width="24.3137" height="20" fill="white"/>
</clipPath>
</defs>
</svg>
