<svg width="25" height="20" viewBox="0 0 25 20" fill="none" xmlns="http://www.w3.org/2000/svg">
<g clip-path="url(#clip0_4193_3882)">
<path fill-rule="evenodd" clip-rule="evenodd" d="M6.928 1.5106C7.14512 1.07634 7.47888 0.711117 7.89188 0.455858C8.30487 0.200598 8.78079 0.0653852 9.2663 0.0653687H15.0472C15.5327 0.0653852 16.0086 0.200598 16.4216 0.455858C16.8346 0.711117 17.1684 1.07634 17.3855 1.5106L18.3204 3.38145C18.4508 3.64203 18.6511 3.86116 18.899 4.01428C19.1468 4.1674 19.4325 4.24846 19.7238 4.24838H21.5685C22.2619 4.24838 22.9269 4.52382 23.4172 5.01411C23.9075 5.5044 24.1829 6.16938 24.1829 6.86275V17.3203C24.1829 18.0136 23.9075 18.6786 23.4172 19.1689C22.9269 19.6592 22.2619 19.9347 21.5685 19.9347H2.74499C2.05162 19.9347 1.38664 19.6592 0.896349 19.1689C0.406058 18.6786 0.130615 18.0136 0.130615 17.3203V6.86275C0.130615 6.16938 0.406058 5.5044 0.896349 5.01411C1.38664 4.52382 2.05162 4.24838 2.74499 4.24838H4.5897C4.88117 4.24837 5.16687 4.16715 5.41475 4.01384C5.66264 3.86052 5.86291 3.64118 5.9931 3.3804L6.928 1.5106ZM9.2663 1.11112C8.97484 1.11113 8.68914 1.19235 8.44125 1.34566C8.19336 1.49897 7.99309 1.71832 7.8629 1.97909L6.928 3.84785C6.71102 4.28231 6.37733 4.64774 5.96432 4.90319C5.55132 5.15864 5.07532 5.29401 4.5897 5.29413H2.74499C2.32897 5.29413 1.92998 5.45939 1.63581 5.75357C1.34163 6.04774 1.17637 6.44673 1.17637 6.86275V17.3203C1.17637 17.7363 1.34163 18.1353 1.63581 18.4295C1.92998 18.7236 2.32897 18.8889 2.74499 18.8889H21.5685C21.9846 18.8889 22.3835 18.7236 22.6777 18.4295C22.9719 18.1353 23.1372 17.7363 23.1372 17.3203V6.86275C23.1372 6.44673 22.9719 6.04774 22.6777 5.75357C22.3835 5.45939 21.9846 5.29413 21.5685 5.29413H19.7238C19.2383 5.29411 18.7624 5.1589 18.3494 4.90364C17.9364 4.64838 17.6026 4.28316 17.3855 3.8489L16.4506 1.97805C16.3203 1.71747 16.12 1.49834 15.8721 1.34521C15.6242 1.19209 15.3386 1.11103 15.0472 1.11112H9.2663Z" fill="#495057"/>
<path fill-rule="evenodd" clip-rule="evenodd" d="M2.22217 3.72549C2.22217 3.30946 2.38743 2.91048 2.68161 2.6163C2.97578 2.32213 3.37477 2.15686 3.7908 2.15686H4.83655C5.25257 2.15686 5.65156 2.32213 5.94573 2.6163C6.23991 2.91048 6.40517 3.30946 6.40517 3.72549V4.24836C6.40517 4.38704 6.35009 4.52003 6.25203 4.61809C6.15397 4.71615 6.02097 4.77124 5.8823 4.77124C5.74362 4.77124 5.61063 4.71615 5.51257 4.61809C5.41451 4.52003 5.35942 4.38704 5.35942 4.24836V3.72549C5.35942 3.58681 5.30433 3.45382 5.20628 3.35576C5.10822 3.2577 4.97522 3.20261 4.83655 3.20261H3.7908C3.65212 3.20261 3.51912 3.2577 3.42107 3.35576C3.32301 3.45382 3.26792 3.58681 3.26792 3.72549V4.77124C3.26792 4.90991 3.21283 5.04291 3.11477 5.14097C3.01671 5.23903 2.88372 5.29412 2.74504 5.29412C2.60637 5.29412 2.47337 5.23903 2.37531 5.14097C2.27726 5.04291 2.22217 4.90991 2.22217 4.77124V3.72549ZM12.1568 6.33987C10.9087 6.33987 9.71177 6.83566 8.82925 7.71819C7.94672 8.60071 7.45093 9.79767 7.45093 11.0457C7.45093 12.2938 7.94672 13.4908 8.82925 14.3733C9.71177 15.2558 10.9087 15.7516 12.1568 15.7516C13.4049 15.7516 14.6018 15.2558 15.4844 14.3733C16.3669 13.4908 16.8627 12.2938 16.8627 11.0457C16.8627 9.79767 16.3669 8.60071 15.4844 7.71819C14.6018 6.83566 13.4049 6.33987 12.1568 6.33987ZM6.40517 11.0457C6.40517 9.52032 7.01115 8.05737 8.08979 6.97873C9.16843 5.90009 10.6314 5.29412 12.1568 5.29412C13.6822 5.29412 15.1452 5.90009 16.2238 6.97873C17.3025 8.05737 17.9084 9.52032 17.9084 11.0457C17.9084 12.5712 17.3025 14.0341 16.2238 15.1128C15.1452 16.1914 13.6822 16.7974 12.1568 16.7974C10.6314 16.7974 9.16843 16.1914 8.08979 15.1128C7.01115 14.0341 6.40517 12.5712 6.40517 11.0457Z" fill="#495057"/>
<path fill-rule="evenodd" clip-rule="evenodd" d="M12.1569 9.47712C11.7408 9.47712 11.3418 9.64239 11.0477 9.93656C10.7535 10.2307 10.5882 10.6297 10.5882 11.0458C10.5882 11.4618 10.7535 11.8608 11.0477 12.1549C11.3418 12.4491 11.7408 12.6144 12.1569 12.6144C12.5729 12.6144 12.9719 12.4491 13.266 12.1549C13.5602 11.8608 13.7255 11.4618 13.7255 11.0458C13.7255 10.6297 13.5602 10.2307 13.266 9.93656C12.9719 9.64239 12.5729 9.47712 12.1569 9.47712ZM9.54248 11.0458C9.54248 10.3524 9.81792 9.6874 10.3082 9.19711C10.7985 8.70681 11.4635 8.43137 12.1569 8.43137C12.8502 8.43137 13.5152 8.70681 14.0055 9.19711C14.4958 9.6874 14.7712 10.3524 14.7712 11.0458C14.7712 11.7391 14.4958 12.4041 14.0055 12.8944C13.5152 13.3847 12.8502 13.6601 12.1569 13.6601C11.4635 13.6601 10.7985 13.3847 10.3082 12.8944C9.81792 12.4041 9.54248 11.7391 9.54248 11.0458ZM18.9542 7.9085C18.9542 7.76982 19.0093 7.63682 19.1074 7.53877C19.2055 7.44071 19.3384 7.38562 19.4771 7.38562H21.5686C21.7073 7.38562 21.8403 7.44071 21.9384 7.53877C22.0364 7.63682 22.0915 7.76982 22.0915 7.9085C22.0915 8.04717 22.0364 8.18017 21.9384 8.27823C21.8403 8.37628 21.7073 8.43137 21.5686 8.43137H19.4771C19.3384 8.43137 19.2055 8.37628 19.1074 8.27823C19.0093 8.18017 18.9542 8.04717 18.9542 7.9085Z" fill="#495057"/>
</g>
<defs>
<clipPath id="clip0_4193_3882">
<rect width="24.3137" height="20" fill="white"/>
</clipPath>
</defs>
</svg>
