<svg width="24" height="24" viewBox="0 0 24 24" fill="none" xmlns="http://www.w3.org/2000/svg">
<path fill-rule="evenodd" clip-rule="evenodd" d="M9.14514 0.514286C9.15932 0.373238 9.22542 0.242493 9.3306 0.147452C9.43578 0.0524102 9.57253 -0.000143239 9.71429 2.93234e-07H14.2857C14.4273 0.000140084 14.5637 0.0528207 14.6687 0.147835C14.7736 0.24285 14.8396 0.373434 14.8537 0.514286L15.1189 3.15429C15.129 3.25715 15.1669 3.35534 15.2284 3.43839C15.29 3.52143 15.3729 3.58623 15.4684 3.62587C15.5639 3.66551 15.6683 3.67851 15.7706 3.66349C15.8728 3.64847 15.9691 3.60599 16.0491 3.54057L18.1029 1.86057C18.2125 1.77083 18.3515 1.725 18.493 1.73197C18.6345 1.73893 18.7683 1.79821 18.8686 1.89829L22.1017 5.13029C22.2018 5.23054 22.2611 5.36439 22.268 5.50588C22.275 5.64737 22.2292 5.7864 22.1394 5.896L20.4594 7.95086C20.3941 8.03074 20.3516 8.12684 20.3364 8.22893C20.3213 8.33103 20.3341 8.43532 20.3735 8.53072C20.4129 8.62613 20.4774 8.70908 20.5601 8.77078C20.6429 8.83248 20.7408 8.87062 20.8434 8.88114L23.4857 9.14514C23.6268 9.15932 23.7575 9.22542 23.8525 9.3306C23.9476 9.43578 24.0001 9.57253 24 9.71429V14.2857C23.9999 14.4273 23.9472 14.5637 23.8522 14.6687C23.7572 14.7736 23.6266 14.8396 23.4857 14.8537L20.8457 15.1189C20.7428 15.129 20.6447 15.1669 20.5616 15.2284C20.4786 15.29 20.4138 15.3729 20.3741 15.4684C20.3345 15.5639 20.3215 15.6683 20.3365 15.7706C20.3515 15.8728 20.394 15.9691 20.4594 16.0491L22.1394 18.1029C22.2292 18.2125 22.275 18.3515 22.268 18.493C22.2611 18.6345 22.2018 18.7683 22.1017 18.8686L18.8686 22.1006C18.7685 22.2008 18.6347 22.2603 18.4932 22.2675C18.3517 22.2747 18.2126 22.229 18.1029 22.1394L16.0491 20.4594C15.9693 20.3941 15.8732 20.3516 15.7711 20.3364C15.669 20.3213 15.5647 20.3341 15.4693 20.3735C15.3739 20.4129 15.2909 20.4774 15.2292 20.5601C15.1675 20.6429 15.1294 20.7408 15.1189 20.8434L14.8549 23.4857C14.8407 23.6268 14.7746 23.7575 14.6694 23.8525C14.5642 23.9476 14.4275 24.0001 14.2857 24H9.71429C9.57253 24.0001 9.43578 23.9476 9.3306 23.8525C9.22542 23.7575 9.15932 23.6268 9.14514 23.4857L8.88229 20.8434C8.87208 20.7405 8.83411 20.6422 8.77241 20.5591C8.71072 20.476 8.62762 20.4113 8.532 20.3717C8.43637 20.3322 8.3318 20.3193 8.22945 20.3346C8.1271 20.3498 8.03081 20.3926 7.95086 20.4583L5.89714 22.1383C5.78754 22.228 5.64851 22.2739 5.50702 22.2669C5.36554 22.2599 5.23168 22.2006 5.13143 22.1006L1.89714 18.8686C1.79706 18.7683 1.73779 18.6345 1.73082 18.493C1.72385 18.3515 1.76969 18.2125 1.85943 18.1029L3.53943 16.0491C3.60481 15.9692 3.6473 15.873 3.66238 15.7708C3.67745 15.6686 3.66455 15.5643 3.62504 15.4688C3.58553 15.3734 3.52089 15.2905 3.438 15.2288C3.3551 15.1672 3.25706 15.1292 3.15429 15.1189L0.514286 14.8549C0.373238 14.8407 0.242493 14.7746 0.147452 14.6694C0.0524102 14.5642 -0.000143239 14.4275 2.93234e-07 14.2857V9.71429C-0.000143239 9.57253 0.0524102 9.43578 0.147452 9.3306C0.242493 9.22542 0.373238 9.15932 0.514286 9.14514L3.15657 8.88229C3.25955 8.87208 3.35782 8.83411 3.4409 8.77241C3.52398 8.71072 3.58874 8.62762 3.62828 8.532C3.66783 8.43637 3.68066 8.3318 3.66541 8.22945C3.65017 8.1271 3.60741 8.03081 3.54171 7.95086L1.86057 5.89714C1.77083 5.78754 1.725 5.64851 1.73197 5.50702C1.73893 5.36554 1.79821 5.23168 1.89829 5.13143L5.13143 1.89829C5.23154 1.79804 5.36531 1.73856 5.5068 1.73138C5.64829 1.7242 5.7874 1.76983 5.89714 1.85943L7.95086 3.54057C8.03082 3.60596 8.12701 3.64845 8.22919 3.66352C8.33137 3.6786 8.43573 3.66569 8.53117 3.62618C8.6266 3.58667 8.70955 3.52203 8.77117 3.43914C8.8328 3.35625 8.8708 3.2582 8.88114 3.15543L9.14514 0.514286ZM10.2309 1.14286L10.0194 3.26857C9.88229 4.62971 8.28572 5.29143 7.22743 4.42514L5.57371 3.072L3.072 5.57257L4.42629 7.22743C5.29257 8.28572 4.63086 9.88229 3.26971 10.0183L1.14286 10.2309V13.768L3.26857 13.9806C4.62971 14.1177 5.29143 15.7143 4.42514 16.7726L3.072 18.4263L5.57371 20.9269L7.22743 19.5737C8.28572 18.7074 9.88229 19.3691 10.0183 20.7303L10.232 22.8571H13.7691L13.9817 20.7303C14.1177 19.3703 15.7143 18.7074 16.7726 19.5737L18.4263 20.9269L20.928 18.4263L19.5749 16.7726C18.7086 15.7143 19.3691 14.1177 20.7314 13.9817L22.8571 13.768V10.2309L20.7303 10.0183C19.3703 9.88229 18.7074 8.28572 19.5737 7.22743L20.928 5.57257L18.4263 3.072L16.7726 4.42514C15.7143 5.29143 14.1177 4.63086 13.9817 3.26857L13.768 1.14286H10.2309Z" fill="#495057"/>
<path fill-rule="evenodd" clip-rule="evenodd" d="M12 8C11.4747 8 10.9546 8.10347 10.4693 8.30449C9.984 8.5055 9.54304 8.80014 9.17161 9.17158C8.80017 9.54301 8.50554 9.98397 8.30452 10.4693C8.1035 10.9546 8.00003 11.4747 8.00003 12C8.00003 12.5253 8.1035 13.0454 8.30452 13.5307C8.50554 14.016 8.80017 14.457 9.17161 14.8284C9.54304 15.1999 9.984 15.4945 10.4693 15.6955C10.9546 15.8965 11.4747 16 12 16C13.0609 16 14.0783 15.5786 14.8285 14.8284C15.5786 14.0783 16 13.0609 16 12C16 10.9391 15.5786 9.92172 14.8285 9.17158C14.0783 8.42143 13.0609 8 12 8ZM6.85718 12C6.85718 10.636 7.39901 9.32793 8.36349 8.36346C9.32796 7.39898 10.6361 6.85715 12 6.85715C13.364 6.85715 14.6721 7.39898 15.6366 8.36346C16.6011 9.32793 17.1429 10.636 17.1429 12C17.1429 13.364 16.6011 14.6721 15.6366 15.6366C14.6721 16.601 13.364 17.1429 12 17.1429C10.6361 17.1429 9.32796 16.601 8.36349 15.6366C7.39901 14.6721 6.85718 13.364 6.85718 12Z" fill="#495057"/>
</svg>
